<svg xmlns="http://www.w3.org/2000/svg" width="625.738" height="80.193" viewBox="0 0 625.738 80.193">
  <g id="Grupo_1827" data-name="Grupo 1827" transform="translate(-127.237 -1014.239)" fill="White" >
    <g id="Grupo_1651" data-name="Grupo 1651" transform="translate(217.278 1038.236)"  style="stroke: White; stroke-width: 1;">
      <g id="Grupo_1650" data-name="Grupo 1650" transform="translate(0 0)" >
        <path id="Trazado_597" data-name="Trazado 597" d="M291.422,1067.774a2.647,2.647,0,0,0-.188-1.029,2.172,2.172,0,0,0-.637-.821,4.767,4.767,0,0,0-1.184-.681,15.931,15.931,0,0,0-1.834-.618,17.155,17.155,0,0,1-1.911-.651,5.965,5.965,0,0,1-1.444-.826,3.419,3.419,0,0,1-.918-1.091,3.084,3.084,0,0,1-.323-1.448,3.144,3.144,0,0,1,.347-1.478,3.421,3.421,0,0,1,.975-1.144,4.735,4.735,0,0,1,1.5-.743,6.473,6.473,0,0,1,1.9-.266,5.778,5.778,0,0,1,2,.328,4.59,4.59,0,0,1,1.521.9,3.932,3.932,0,0,1,.965,1.333,4,4,0,0,1,.339,1.642h-1.2a3.3,3.3,0,0,0-.241-1.27,2.8,2.8,0,0,0-.705-1.009,3.312,3.312,0,0,0-1.14-.666,4.578,4.578,0,0,0-1.544-.241,5.108,5.108,0,0,0-1.531.208,3.348,3.348,0,0,0-1.1.559,2.357,2.357,0,0,0-.666.826,2.348,2.348,0,0,0-.039,1.932,2.164,2.164,0,0,0,.632.786,5.024,5.024,0,0,0,1.169.676,12.784,12.784,0,0,0,1.786.594,16.461,16.461,0,0,1,1.98.676,5.826,5.826,0,0,1,1.467.864,3.376,3.376,0,0,1,.908,1.144,3.44,3.44,0,0,1,.309,1.5,3.224,3.224,0,0,1-.362,1.54,3.407,3.407,0,0,1-1,1.155,4.732,4.732,0,0,1-1.531.724,7.081,7.081,0,0,1-1.931.251,7.551,7.551,0,0,1-1.26-.107,6.593,6.593,0,0,1-1.218-.323,5.228,5.228,0,0,1-1.09-.555,3.727,3.727,0,0,1-1.468-1.878,3.964,3.964,0,0,1-.217-1.347h1.187a2.876,2.876,0,0,0,.367,1.5,3,3,0,0,0,.946.99,4.066,4.066,0,0,0,1.3.546,6.368,6.368,0,0,0,1.449.169,5.5,5.5,0,0,0,1.491-.188,3.569,3.569,0,0,0,1.149-.536,2.428,2.428,0,0,0,.734-.835A2.306,2.306,0,0,0,291.422,1067.774Z" transform="translate(-282.539 -1056.196)"/>
        <path id="Trazado_598" data-name="Trazado 598" d="M303.757,1057.76a.783.783,0,0,1,.212-.555.756.756,0,0,1,.58-.227.761.761,0,0,1,.8.782.756.756,0,0,1-.217.55.781.781,0,0,1-.584.222.745.745,0,0,1-.792-.772Zm1.361,13.471H303.96v-10.449h1.158Z" transform="translate(-291.455 -1056.196)"/>
        <path id="Trazado_599" data-name="Trazado 599" d="M317.391,1071.192a1.92,1.92,0,0,0-.111-.637,1.514,1.514,0,0,0-.415-.6,3.133,3.133,0,0,0-.849-.531,7.032,7.032,0,0,0-1.415-.429,12.2,12.2,0,0,1-1.55-.425,4.427,4.427,0,0,1-1.149-.584,2.3,2.3,0,0,1-.71-.816,2.409,2.409,0,0,1-.242-1.11,2.468,2.468,0,0,1,.256-1.1,2.672,2.672,0,0,1,.733-.908,3.678,3.678,0,0,1,1.159-.613,4.825,4.825,0,0,1,1.531-.227,5.211,5.211,0,0,1,1.627.236,3.625,3.625,0,0,1,1.217.657,2.824,2.824,0,0,1,.758.99,2.926,2.926,0,0,1,.261,1.236h-1.159a1.868,1.868,0,0,0-.179-.791,2,2,0,0,0-.521-.682,2.71,2.71,0,0,0-.85-.477,3.376,3.376,0,0,0-1.154-.184,3.578,3.578,0,0,0-1.154.164,2.367,2.367,0,0,0-.782.425,1.607,1.607,0,0,0-.584,1.236,1.8,1.8,0,0,0,.106.632,1.268,1.268,0,0,0,.41.532,3.137,3.137,0,0,0,.85.453,11.235,11.235,0,0,0,1.424.411,12,12,0,0,1,1.632.492,4.144,4.144,0,0,1,1.135.642,2.378,2.378,0,0,1,.667.85,2.643,2.643,0,0,1,.217,1.106,2.6,2.6,0,0,1-.271,1.183,2.643,2.643,0,0,1-.772.917,3.772,3.772,0,0,1-1.217.594,6.116,6.116,0,0,1-3.351-.043,3.957,3.957,0,0,1-1.284-.69,2.9,2.9,0,0,1-.787-1,2.722,2.722,0,0,1-.265-1.173h1.159a2.01,2.01,0,0,0,.318,1.028,2.186,2.186,0,0,0,.7.656,2.991,2.991,0,0,0,.922.353,4.869,4.869,0,0,0,1,.107,3.934,3.934,0,0,0,1.159-.155,2.7,2.7,0,0,0,.845-.415,1.78,1.78,0,0,0,.517-.6A1.526,1.526,0,0,0,317.391,1071.192Z" transform="translate(-294.332 -1058.813)"/>
        <path id="Trazado_600" data-name="Trazado 600" d="M329.656,1058.927v2.674h2.163v.947h-2.163v6.963a2.846,2.846,0,0,0,.111.883,1.3,1.3,0,0,0,.3.521.927.927,0,0,0,.435.251,2.069,2.069,0,0,0,.516.063,3.626,3.626,0,0,0,.5-.034l.434-.062.049.946a2.643,2.643,0,0,1-.555.121,5.359,5.359,0,0,1-.681.044,3.072,3.072,0,0,1-.912-.13,1.634,1.634,0,0,1-.72-.448,2.2,2.2,0,0,1-.468-.846,4.318,4.318,0,0,1-.169-1.308v-6.963h-1.921v-.947H328.5v-2.674Z" transform="translate(-301.044 -1057.015)"/>
        <path id="Trazado_601" data-name="Trazado 601" d="M343.334,1074.041a4.589,4.589,0,0,1-1.883-.382,4.392,4.392,0,0,1-1.482-1.062,4.847,4.847,0,0,1-.97-1.617,5.866,5.866,0,0,1-.348-2.057v-.414a6.264,6.264,0,0,1,.362-2.187,5.154,5.154,0,0,1,.98-1.671,4.385,4.385,0,0,1,1.425-1.067,3.977,3.977,0,0,1,1.7-.377,4.167,4.167,0,0,1,1.767.357,3.652,3.652,0,0,1,1.3.995,4.366,4.366,0,0,1,.8,1.516,6.509,6.509,0,0,1,.271,1.922v.7H339.8v.221a4.921,4.921,0,0,0,.261,1.618,4.058,4.058,0,0,0,.734,1.318,3.473,3.473,0,0,0,1.129.883,3.252,3.252,0,0,0,1.458.324,3.766,3.766,0,0,0,1.637-.338,3.635,3.635,0,0,0,1.289-1.082l.724.551a4.971,4.971,0,0,1-.6.714,3.634,3.634,0,0,1-.8.589,4.26,4.26,0,0,1-1.023.4A5.171,5.171,0,0,1,343.334,1074.041Zm-.213-9.85a2.942,2.942,0,0,0-1.216.251,3.033,3.033,0,0,0-.99.714,3.8,3.8,0,0,0-.7,1.116,5.36,5.36,0,0,0-.372,1.444H346.1v-.125a4.679,4.679,0,0,0-.213-1.27,3.392,3.392,0,0,0-.565-1.087,2.8,2.8,0,0,0-.922-.758A2.76,2.76,0,0,0,343.121,1064.191Z" transform="translate(-306.118 -1058.813)"/>
        <path id="Trazado_602" data-name="Trazado 602" d="M358.381,1063.4l.039,1.7a4.44,4.44,0,0,1,.6-.777,3.559,3.559,0,0,1,.768-.6,3.849,3.849,0,0,1,.928-.382,4.157,4.157,0,0,1,1.081-.135,3.823,3.823,0,0,1,1.97.483,2.665,2.665,0,0,1,1.168,1.545,4.274,4.274,0,0,1,.6-.806,3.794,3.794,0,0,1,.8-.642,4.1,4.1,0,0,1,.99-.425,4.254,4.254,0,0,1,1.169-.155,4.478,4.478,0,0,1,1.448.217,2.608,2.608,0,0,1,1.077.686,3.087,3.087,0,0,1,.671,1.192,5.748,5.748,0,0,1,.231,1.738v6.808h-1.158v-6.818a4.376,4.376,0,0,0-.184-1.376,2.105,2.105,0,0,0-.521-.869,1.838,1.838,0,0,0-.806-.449,3.973,3.973,0,0,0-1.028-.126,3.053,3.053,0,0,0-2.216.913,3.04,3.04,0,0,0-.845,1.811v6.914h-1.159v-6.9a3.975,3.975,0,0,0-.183-1.3,2.088,2.088,0,0,0-.522-.84,1.942,1.942,0,0,0-.806-.453,3.735,3.735,0,0,0-1.038-.136,3.011,3.011,0,0,0-1.159.208,2.863,2.863,0,0,0-.874.555,3.1,3.1,0,0,0-.613.792,4.909,4.909,0,0,0-.386.917v7.165h-1.159V1063.4Z" transform="translate(-313.943 -1058.813)"/>
        <path id="Trazado_603" data-name="Trazado 603" d="M393.8,1073.848a3.3,3.3,0,0,1-.15-.662q-.053-.391-.072-.8a4.046,4.046,0,0,1-.618.637,4.111,4.111,0,0,1-.8.521,4.822,4.822,0,0,1-.976.357,4.658,4.658,0,0,1-1.149.136,4.108,4.108,0,0,1-1.385-.222,3.1,3.1,0,0,1-1.062-.623,2.8,2.8,0,0,1-.681-.942A3.023,3.023,0,0,1,387,1069.7a2.983,2.983,0,0,1,.946-1.043,4.614,4.614,0,0,1,1.5-.656,7.984,7.984,0,0,1,1.985-.227h2.144v-1.187a2.291,2.291,0,0,0-.69-1.763,2.854,2.854,0,0,0-2.014-.642,3.646,3.646,0,0,0-1.12.164,2.82,2.82,0,0,0-.884.453,2.156,2.156,0,0,0-.579.671,1.68,1.68,0,0,0-.208.816l-1.159-.01a2.416,2.416,0,0,1,.29-1.14,3.161,3.161,0,0,1,.816-.98,4.2,4.2,0,0,1,1.265-.691,4.888,4.888,0,0,1,1.637-.261,5.257,5.257,0,0,1,1.531.213,3.34,3.34,0,0,1,1.2.637,2.9,2.9,0,0,1,.782,1.062,3.67,3.67,0,0,1,.281,1.487v5.06c0,.18.006.367.019.56s.033.38.063.56.063.352.1.516a2.659,2.659,0,0,0,.135.43v.117Zm-3.631-.831a4.08,4.08,0,0,0,1.164-.159,3.77,3.77,0,0,0,.971-.439,3.478,3.478,0,0,0,.753-.652,3.3,3.3,0,0,0,.512-.806v-2.3h-1.98a7.163,7.163,0,0,0-1.588.16,3.844,3.844,0,0,0-1.183.459,2.158,2.158,0,0,0-.739.729,1.862,1.862,0,0,0-.256.97,1.947,1.947,0,0,0,.164.8,1.885,1.885,0,0,0,.468.647,2.25,2.25,0,0,0,.739.435A2.823,2.823,0,0,0,390.172,1073.017Z" transform="translate(-326.296 -1058.813)"/>
        <path id="Trazado_604" data-name="Trazado 604" d="M416.269,1071.371h-1.188v-14.06h1.188Z" transform="translate(-338.236 -1056.336)"/>
        <path id="Trazado_605" data-name="Trazado 605" d="M424.343,1063.4l.038,1.787a4.733,4.733,0,0,1,.623-.811,3.778,3.778,0,0,1,1.724-1.029,3.944,3.944,0,0,1,1.062-.14,4.3,4.3,0,0,1,1.4.213,2.526,2.526,0,0,1,1.048.676,3.052,3.052,0,0,1,.656,1.193,5.974,5.974,0,0,1,.227,1.762v6.8h-1.149v-6.808a4.474,4.474,0,0,0-.174-1.352,2.177,2.177,0,0,0-.493-.869,1.78,1.78,0,0,0-.777-.468,3.5,3.5,0,0,0-1.019-.14,2.9,2.9,0,0,0-1.12.208,3.053,3.053,0,0,0-.888.555,3.714,3.714,0,0,0-.667.8,4.556,4.556,0,0,0-.443.922v7.156h-1.15V1063.4Z" transform="translate(-341.665 -1058.813)"/>
        <path id="Trazado_606" data-name="Trazado 606" d="M447.851,1071.192a1.933,1.933,0,0,0-.111-.637,1.521,1.521,0,0,0-.416-.6,3.121,3.121,0,0,0-.849-.531,7.04,7.04,0,0,0-1.414-.429,12.206,12.206,0,0,1-1.55-.425,4.432,4.432,0,0,1-1.149-.584,2.3,2.3,0,0,1-.71-.816,2.407,2.407,0,0,1-.242-1.11,2.467,2.467,0,0,1,.256-1.1,2.678,2.678,0,0,1,.733-.908,3.689,3.689,0,0,1,1.16-.613,4.82,4.82,0,0,1,1.53-.227,5.211,5.211,0,0,1,1.627.236,3.619,3.619,0,0,1,1.217.657,2.833,2.833,0,0,1,.758.99,2.934,2.934,0,0,1,.26,1.236h-1.158a1.871,1.871,0,0,0-.179-.791,2,2,0,0,0-.521-.682,2.708,2.708,0,0,0-.851-.477,3.37,3.37,0,0,0-1.154-.184,3.576,3.576,0,0,0-1.154.164,2.37,2.37,0,0,0-.782.425,1.615,1.615,0,0,0-.445.584,1.638,1.638,0,0,0-.14.652,1.814,1.814,0,0,0,.106.632,1.273,1.273,0,0,0,.411.532,3.14,3.14,0,0,0,.849.453,11.25,11.25,0,0,0,1.425.411,11.978,11.978,0,0,1,1.631.492,4.137,4.137,0,0,1,1.135.642,2.379,2.379,0,0,1,.667.85,2.644,2.644,0,0,1,.217,1.106,2.594,2.594,0,0,1-.27,1.183,2.643,2.643,0,0,1-.773.917,3.769,3.769,0,0,1-1.217.594,5.588,5.588,0,0,1-1.593.213,5.522,5.522,0,0,1-1.757-.256,3.959,3.959,0,0,1-1.284-.69,2.9,2.9,0,0,1-.787-1,2.722,2.722,0,0,1-.266-1.173h1.159a2,2,0,0,0,.318,1.028,2.179,2.179,0,0,0,.7.656,2.987,2.987,0,0,0,.921.353,4.88,4.88,0,0,0,1,.107,3.933,3.933,0,0,0,1.158-.155,2.688,2.688,0,0,0,.845-.415,1.78,1.78,0,0,0,.517-.6A1.519,1.519,0,0,0,447.851,1071.192Z" transform="translate(-349.154 -1058.813)"/>
        <path id="Trazado_607" data-name="Trazado 607" d="M460.116,1058.927v2.674h2.163v.947h-2.163v6.963a2.861,2.861,0,0,0,.111.883,1.308,1.308,0,0,0,.3.521.92.92,0,0,0,.434.251,2.069,2.069,0,0,0,.517.063,3.617,3.617,0,0,0,.5-.034l.435-.062.048.946a2.639,2.639,0,0,1-.555.121,5.352,5.352,0,0,1-.681.044,3.074,3.074,0,0,1-.913-.13,1.636,1.636,0,0,1-.719-.448,2.2,2.2,0,0,1-.469-.846,4.338,4.338,0,0,1-.169-1.308v-6.963h-1.922v-.947h1.922v-2.674Z" transform="translate(-355.866 -1057.015)"/>
        <path id="Trazado_608" data-name="Trazado 608" d="M470.094,1057.76a.78.78,0,0,1,.212-.555.754.754,0,0,1,.579-.227.761.761,0,0,1,.8.782.756.756,0,0,1-.217.55.781.781,0,0,1-.584.222.745.745,0,0,1-.791-.772Zm1.361,13.471H470.3v-10.449h1.158Z" transform="translate(-361.354 -1056.196)"/>
        <path id="Trazado_609" data-name="Trazado 609" d="M478.721,1058.927v2.674h2.163v.947h-2.163v6.963a2.839,2.839,0,0,0,.111.883,1.293,1.293,0,0,0,.3.521.927.927,0,0,0,.435.251,2.069,2.069,0,0,0,.516.063,3.61,3.61,0,0,0,.5-.034l.434-.062.049.946a2.627,2.627,0,0,1-.555.121,5.355,5.355,0,0,1-.681.044,3.068,3.068,0,0,1-.912-.13,1.632,1.632,0,0,1-.72-.448,2.2,2.2,0,0,1-.469-.846,4.339,4.339,0,0,1-.169-1.308v-6.963H475.64v-.947h1.921v-2.674Z" transform="translate(-363.684 -1057.015)"/>
        <path id="Trazado_610" data-name="Trazado 610" d="M495.507,1072.664a3.338,3.338,0,0,1-1.308,1.116,4.568,4.568,0,0,1-2.023.4,4.254,4.254,0,0,1-1.4-.217,2.692,2.692,0,0,1-1.081-.691,3.148,3.148,0,0,1-.7-1.222,5.87,5.87,0,0,1-.246-1.82v-6.692H489.9v6.711a4.333,4.333,0,0,0,.194,1.4,2.382,2.382,0,0,0,.521.9,1.877,1.877,0,0,0,.768.483,2.961,2.961,0,0,0,.932.145,4.391,4.391,0,0,0,1.226-.154,2.952,2.952,0,0,0,.918-.434,2.577,2.577,0,0,0,.637-.657,3.271,3.271,0,0,0,.4-.83v-7.562h1.158v10.449h-1.12Z" transform="translate(-369.192 -1058.953)"/>
        <path id="Trazado_611" data-name="Trazado 611" d="M510.979,1073.066a3.513,3.513,0,0,0,1.057-.159,2.843,2.843,0,0,0,.9-.469,2.553,2.553,0,0,0,.652-.763,2.442,2.442,0,0,0,.295-1.052H515a3.241,3.241,0,0,1-.372,1.371,3.579,3.579,0,0,1-.879,1.082,4.133,4.133,0,0,1-1.26.709,4.439,4.439,0,0,1-1.506.256,4.394,4.394,0,0,1-1.931-.4,3.981,3.981,0,0,1-1.4-1.1,4.834,4.834,0,0,1-.849-1.657,7.11,7.11,0,0,1-.285-2.052v-.406a7.116,7.116,0,0,1,.285-2.052,4.8,4.8,0,0,1,.845-1.651,4,4,0,0,1,1.395-1.106,4.359,4.359,0,0,1,1.927-.406,4.549,4.549,0,0,1,1.56.261,3.789,3.789,0,0,1,1.255.743,3.582,3.582,0,0,1,.854,1.173,4.071,4.071,0,0,1,.358,1.54h-1.11a3.106,3.106,0,0,0-.275-1.14,2.68,2.68,0,0,0-1.535-1.4,3.223,3.223,0,0,0-1.106-.188,3.077,3.077,0,0,0-1.521.348,2.927,2.927,0,0,0-1.019.936,4.047,4.047,0,0,0-.575,1.352,6.949,6.949,0,0,0-.178,1.593v.406a7.06,7.06,0,0,0,.178,1.608,4.04,4.04,0,0,0,.57,1.352,2.881,2.881,0,0,0,1.023.932A3.137,3.137,0,0,0,510.979,1073.066Z" transform="translate(-376.66 -1058.813)"/>
        <path id="Trazado_612" data-name="Trazado 612" d="M525.006,1057.76a.781.781,0,0,1,.213-.555.753.753,0,0,1,.579-.227.761.761,0,0,1,.8.782.756.756,0,0,1-.218.55.781.781,0,0,1-.584.222.746.746,0,0,1-.792-.772Zm1.361,13.471h-1.159v-10.449h1.159Z" transform="translate(-384.429 -1056.196)"/>
        <path id="Trazado_613" data-name="Trazado 613" d="M531.668,1068.469a6.425,6.425,0,0,1,.333-2.105,5,5,0,0,1,.942-1.666,4.313,4.313,0,0,1,1.468-1.1,4.52,4.52,0,0,1,1.911-.4,4.6,4.6,0,0,1,1.936.4,4.3,4.3,0,0,1,1.473,1.1,4.932,4.932,0,0,1,.936,1.666,6.5,6.5,0,0,1,.329,2.105v.319a6.491,6.491,0,0,1-.329,2.105,4.916,4.916,0,0,1-.936,1.665,4.242,4.242,0,0,1-1.468,1.091,4.915,4.915,0,0,1-3.843,0,4.285,4.285,0,0,1-1.472-1.091,4.94,4.94,0,0,1-.947-1.665,6.417,6.417,0,0,1-.333-2.105Zm1.158.319a5.707,5.707,0,0,0,.232,1.637,4.221,4.221,0,0,0,.676,1.362,3.3,3.3,0,0,0,1.1.932,3.425,3.425,0,0,0,3.007,0,3.319,3.319,0,0,0,1.1-.932,4.208,4.208,0,0,0,.676-1.362,5.688,5.688,0,0,0,.232-1.637v-.319a5.621,5.621,0,0,0-.232-1.617,4.266,4.266,0,0,0-.676-1.366,3.319,3.319,0,0,0-1.1-.941,3.167,3.167,0,0,0-1.512-.353,3.083,3.083,0,0,0-1.491.353,3.347,3.347,0,0,0-1.1.941,4.279,4.279,0,0,0-.676,1.366,5.64,5.64,0,0,0-.232,1.617Z" transform="translate(-387.228 -1058.813)"/>
        <path id="Trazado_614" data-name="Trazado 614" d="M552.972,1063.4l.038,1.787a4.642,4.642,0,0,1,.623-.811,3.779,3.779,0,0,1,1.724-1.029,3.947,3.947,0,0,1,1.062-.14,4.3,4.3,0,0,1,1.4.213,2.53,2.53,0,0,1,1.048.676,3.06,3.06,0,0,1,.656,1.193,6,6,0,0,1,.227,1.762v6.8H558.6v-6.808a4.491,4.491,0,0,0-.173-1.352,2.182,2.182,0,0,0-.493-.869,1.786,1.786,0,0,0-.777-.468,3.5,3.5,0,0,0-1.019-.14,2.894,2.894,0,0,0-1.12.208,3.06,3.06,0,0,0-.889.555,3.712,3.712,0,0,0-.666.8,4.554,4.554,0,0,0-.444.922v7.156h-1.149V1063.4Z" transform="translate(-395.718 -1058.813)"/>
        <path id="Trazado_615" data-name="Trazado 615" d="M576.811,1073.848a3.336,3.336,0,0,1-.149-.662q-.054-.391-.072-.8a4.122,4.122,0,0,1-1.42,1.158,4.808,4.808,0,0,1-.975.357,4.663,4.663,0,0,1-1.149.136,4.109,4.109,0,0,1-1.385-.222,3.109,3.109,0,0,1-1.062-.623,2.809,2.809,0,0,1-.681-.942A3.027,3.027,0,0,1,570,1069.7a2.976,2.976,0,0,1,.946-1.043,4.6,4.6,0,0,1,1.5-.656,7.979,7.979,0,0,1,1.985-.227h2.143v-1.187a2.289,2.289,0,0,0-.691-1.763,2.854,2.854,0,0,0-2.014-.642,3.645,3.645,0,0,0-1.12.164,2.817,2.817,0,0,0-.883.453,2.159,2.159,0,0,0-.58.671,1.688,1.688,0,0,0-.208.816l-1.159-.01a2.424,2.424,0,0,1,.289-1.14,3.166,3.166,0,0,1,.817-.98,4.2,4.2,0,0,1,1.265-.691,4.893,4.893,0,0,1,1.637-.261,5.253,5.253,0,0,1,1.53.213,3.339,3.339,0,0,1,1.2.637,2.9,2.9,0,0,1,.782,1.062,3.68,3.68,0,0,1,.28,1.487v5.06c0,.18.006.367.02.56s.033.38.062.56.063.352.1.516a2.659,2.659,0,0,0,.134.43v.117Zm-3.63-.831a4.091,4.091,0,0,0,1.164-.159,3.789,3.789,0,0,0,.97-.439,3.482,3.482,0,0,0,.753-.652,3.313,3.313,0,0,0,.512-.806v-2.3H574.6a7.159,7.159,0,0,0-1.589.16,3.838,3.838,0,0,0-1.183.459,2.16,2.16,0,0,0-.739.729,1.858,1.858,0,0,0-.255.97,1.949,1.949,0,0,0,.164.8,1.9,1.9,0,0,0,.469.647,2.245,2.245,0,0,0,.739.435A2.829,2.829,0,0,0,573.181,1073.017Z" transform="translate(-403.2 -1058.813)"/>
        <path id="Trazado_616" data-name="Trazado 616" d="M590.27,1070.811h-1.159v-14.832h1.159Z" transform="translate(-411.367 -1055.776)"/>
        <path id="Trazado_617" data-name="Trazado 617" d="M604.019,1065.49a7.984,7.984,0,0,1,.28-2.2,5.081,5.081,0,0,1,.8-1.676,3.586,3.586,0,0,1,1.27-1.072,3.7,3.7,0,0,1,1.685-.377,3.861,3.861,0,0,1,1.908.445,3.776,3.776,0,0,1,1.318,1.226v-5.861h1.149v14.832h-1.081l-.049-1.391a3.65,3.65,0,0,1-1.328,1.164,4.141,4.141,0,0,1-1.936.42,3.533,3.533,0,0,1-1.671-.391,3.718,3.718,0,0,1-1.265-1.091,5.142,5.142,0,0,1-.8-1.676,7.774,7.774,0,0,1-.28-2.153Zm1.168.2a7.5,7.5,0,0,0,.184,1.7,4.24,4.24,0,0,0,.559,1.366,2.752,2.752,0,0,0,.951.908,2.71,2.71,0,0,0,1.366.328,3.8,3.8,0,0,0,1.067-.14,3.022,3.022,0,0,0,.849-.391,2.851,2.851,0,0,0,.647-.6,3.921,3.921,0,0,0,.469-.753v-4.905a4.7,4.7,0,0,0-.424-.763,2.908,2.908,0,0,0-.619-.652,3.005,3.005,0,0,0-.849-.454,3.392,3.392,0,0,0-1.12-.17,2.717,2.717,0,0,0-1.381.334,2.777,2.777,0,0,0-.956.912,4.243,4.243,0,0,0-.559,1.371,7.514,7.514,0,0,0-.184,1.7Z" transform="translate(-417.632 -1055.776)"/>
        <path id="Trazado_618" data-name="Trazado 618" d="M627.356,1074.041a4.587,4.587,0,0,1-1.883-.382,4.4,4.4,0,0,1-1.482-1.062,4.878,4.878,0,0,1-.971-1.617,5.881,5.881,0,0,1-.347-2.057v-.414a6.267,6.267,0,0,1,.362-2.187,5.145,5.145,0,0,1,.98-1.671,4.39,4.39,0,0,1,1.424-1.067,3.982,3.982,0,0,1,1.7-.377,4.169,4.169,0,0,1,1.767.357,3.654,3.654,0,0,1,1.3.995,4.375,4.375,0,0,1,.8,1.516,6.508,6.508,0,0,1,.271,1.922v.7h-7.455v.221a4.938,4.938,0,0,0,.261,1.618,4.065,4.065,0,0,0,.734,1.318,3.481,3.481,0,0,0,1.13.883,3.251,3.251,0,0,0,1.458.324,3.768,3.768,0,0,0,1.637-.338,3.642,3.642,0,0,0,1.289-1.082l.724.551a5.017,5.017,0,0,1-.6.714,3.654,3.654,0,0,1-.8.589,4.276,4.276,0,0,1-1.024.4A5.171,5.171,0,0,1,627.356,1074.041Zm-.213-9.85a2.951,2.951,0,0,0-1.217.251,3.046,3.046,0,0,0-.99.714,3.813,3.813,0,0,0-.7,1.116,5.354,5.354,0,0,0-.371,1.444h6.266v-.125a4.634,4.634,0,0,0-.212-1.27,3.378,3.378,0,0,0-.565-1.087,2.69,2.69,0,0,0-2.206-1.043Z" transform="translate(-425.47 -1058.813)"/>
        <path id="Trazado_619" data-name="Trazado 619" d="M651.791,1071.371H650.6v-14.06h1.187Z" transform="translate(-437.208 -1056.336)"/>
        <path id="Trazado_620" data-name="Trazado 620" d="M659.866,1063.4l.038,1.787a4.648,4.648,0,0,1,.623-.811,3.774,3.774,0,0,1,1.723-1.029,3.95,3.95,0,0,1,1.062-.14,4.3,4.3,0,0,1,1.4.213,2.525,2.525,0,0,1,1.048.676,3.067,3.067,0,0,1,.657,1.193,5.976,5.976,0,0,1,.226,1.762v6.8H665.5v-6.808a4.476,4.476,0,0,0-.174-1.352,2.188,2.188,0,0,0-.492-.869,1.793,1.793,0,0,0-.777-.468,3.5,3.5,0,0,0-1.019-.14,2.9,2.9,0,0,0-1.12.208,3.058,3.058,0,0,0-.889.555,3.707,3.707,0,0,0-.666.8,4.564,4.564,0,0,0-.445.922v7.156h-1.149V1063.4Z" transform="translate(-440.637 -1058.813)"/>
        <path id="Trazado_621" data-name="Trazado 621" d="M677.681,1070.664v-9.5h-1.729v-.947h1.729v-1.294a4.317,4.317,0,0,1,.213-1.41,2.742,2.742,0,0,1,.613-1.033,2.63,2.63,0,0,1,.971-.632,3.614,3.614,0,0,1,1.294-.217,5.07,5.07,0,0,1,.613.038,3.865,3.865,0,0,1,.613.126l-.087.965a4.147,4.147,0,0,0-.487-.086,4.809,4.809,0,0,0-.565-.03,1.892,1.892,0,0,0-1.487.594,2.44,2.44,0,0,0-.531,1.685v1.294h2.491v.947H678.84v9.5Z" transform="translate(-447.859 -1055.629)"/>
        <path id="Trazado_622" data-name="Trazado 622" d="M687.694,1068.469a6.421,6.421,0,0,1,.333-2.105,4.993,4.993,0,0,1,.942-1.666,4.309,4.309,0,0,1,1.468-1.1,4.516,4.516,0,0,1,1.911-.4,4.6,4.6,0,0,1,1.936.4,4.3,4.3,0,0,1,1.473,1.1,4.932,4.932,0,0,1,.936,1.666,6.5,6.5,0,0,1,.328,2.105v.319a6.492,6.492,0,0,1-.328,2.105,4.916,4.916,0,0,1-.936,1.665,4.243,4.243,0,0,1-1.468,1.091,4.915,4.915,0,0,1-3.843,0,4.286,4.286,0,0,1-1.473-1.091,4.935,4.935,0,0,1-.946-1.665,6.414,6.414,0,0,1-.333-2.105Zm1.159.319a5.686,5.686,0,0,0,.232,1.637,4.208,4.208,0,0,0,.676,1.362,3.312,3.312,0,0,0,1.1.932,3.427,3.427,0,0,0,3.009,0,3.321,3.321,0,0,0,1.1-.932,4.21,4.21,0,0,0,.676-1.362,5.69,5.69,0,0,0,.232-1.637v-.319a5.623,5.623,0,0,0-.232-1.617,4.268,4.268,0,0,0-.676-1.366,3.319,3.319,0,0,0-1.105-.941,3.165,3.165,0,0,0-1.511-.353,3.087,3.087,0,0,0-1.492.353,3.356,3.356,0,0,0-1.1.941,4.266,4.266,0,0,0-.676,1.366,5.619,5.619,0,0,0-.232,1.617Z" transform="translate(-452.794 -1058.813)"/>
        <path id="Trazado_623" data-name="Trazado 623" d="M712.726,1064.384a4.365,4.365,0,0,0-.782-.068,3.06,3.06,0,0,0-1.062.174,2.654,2.654,0,0,0-.835.487,2.844,2.844,0,0,0-.608.743,4.123,4.123,0,0,0-.391.951v7.175H707.9V1063.4h1.13l.019,1.661a3.459,3.459,0,0,1,1.154-1.357,3.105,3.105,0,0,1,1.792-.5,2.568,2.568,0,0,1,.434.039,1.408,1.408,0,0,1,.328.087Z" transform="translate(-461.283 -1058.813)"/>
        <path id="Trazado_624" data-name="Trazado 624" d="M720.383,1063.4l.039,1.7a4.424,4.424,0,0,1,.6-.777,3.524,3.524,0,0,1,.768-.6,3.85,3.85,0,0,1,.927-.382,4.159,4.159,0,0,1,1.081-.135,3.817,3.817,0,0,1,1.97.483,2.663,2.663,0,0,1,1.169,1.545,4.274,4.274,0,0,1,.6-.806,3.794,3.794,0,0,1,.8-.642,4.1,4.1,0,0,1,.99-.425,4.247,4.247,0,0,1,1.168-.155,4.479,4.479,0,0,1,1.448.217,2.6,2.6,0,0,1,1.077.686,3.076,3.076,0,0,1,.671,1.192,5.726,5.726,0,0,1,.233,1.738v6.808h-1.159v-6.818a4.379,4.379,0,0,0-.184-1.376,2.112,2.112,0,0,0-.521-.869,1.838,1.838,0,0,0-.807-.449,3.974,3.974,0,0,0-1.028-.126,3.053,3.053,0,0,0-2.217.913,3.047,3.047,0,0,0-.845,1.811v6.914h-1.158v-6.9a3.991,3.991,0,0,0-.183-1.3,2.1,2.1,0,0,0-.521-.84,1.95,1.95,0,0,0-.806-.453,3.742,3.742,0,0,0-1.039-.136,3,3,0,0,0-1.158.208,2.866,2.866,0,0,0-.874.555,3.1,3.1,0,0,0-.613.792,4.95,4.95,0,0,0-.387.917v7.165h-1.159V1063.4Z" transform="translate(-466.063 -1058.813)"/>
        <path id="Trazado_625" data-name="Trazado 625" d="M755.806,1073.848a3.254,3.254,0,0,1-.15-.662q-.054-.391-.072-.8a4.136,4.136,0,0,1-1.42,1.158,4.8,4.8,0,0,1-.975.357,4.664,4.664,0,0,1-1.149.136,4.108,4.108,0,0,1-1.386-.222,3.105,3.105,0,0,1-1.062-.623,2.809,2.809,0,0,1-.681-.942A3.029,3.029,0,0,1,749,1069.7a2.984,2.984,0,0,1,.947-1.043,4.6,4.6,0,0,1,1.5-.656,7.982,7.982,0,0,1,1.985-.227h2.143v-1.187a2.288,2.288,0,0,0-.691-1.763,2.854,2.854,0,0,0-2.013-.642,3.648,3.648,0,0,0-1.12.164,2.817,2.817,0,0,0-.883.453,2.166,2.166,0,0,0-.58.671,1.687,1.687,0,0,0-.207.816l-1.159-.01a2.409,2.409,0,0,1,.29-1.14,3.153,3.153,0,0,1,.816-.98,4.185,4.185,0,0,1,1.264-.691,4.893,4.893,0,0,1,1.637-.261,5.254,5.254,0,0,1,1.53.213,3.339,3.339,0,0,1,1.2.637,2.9,2.9,0,0,1,.782,1.062,3.681,3.681,0,0,1,.28,1.487v5.06c0,.18.006.367.019.56s.034.38.063.56.063.352.1.516a2.8,2.8,0,0,0,.135.43v.117Zm-3.631-.831a4.086,4.086,0,0,0,1.164-.159,3.773,3.773,0,0,0,.97-.439,3.464,3.464,0,0,0,.753-.652,3.3,3.3,0,0,0,.512-.806v-2.3h-1.979a7.165,7.165,0,0,0-1.589.16,3.842,3.842,0,0,0-1.183.459,2.159,2.159,0,0,0-.739.729,1.862,1.862,0,0,0-.256.97,1.954,1.954,0,0,0,.164.8,1.893,1.893,0,0,0,.468.647,2.241,2.241,0,0,0,.739.435A2.829,2.829,0,0,0,752.175,1073.017Z" transform="translate(-478.417 -1058.813)"/>
        <path id="Trazado_626" data-name="Trazado 626" d="M771.3,1073.066a3.508,3.508,0,0,0,1.057-.159,2.845,2.845,0,0,0,.9-.469,2.546,2.546,0,0,0,.652-.763,2.432,2.432,0,0,0,.295-1.052h1.11a3.246,3.246,0,0,1-.372,1.371,3.58,3.58,0,0,1-.878,1.082,4.15,4.15,0,0,1-1.26.709,4.438,4.438,0,0,1-1.506.256,4.392,4.392,0,0,1-1.931-.4,3.978,3.978,0,0,1-1.4-1.1,4.841,4.841,0,0,1-.85-1.657,7.134,7.134,0,0,1-.284-2.052v-.406a7.139,7.139,0,0,1,.284-2.052,4.83,4.83,0,0,1,.845-1.651,3.993,3.993,0,0,1,1.395-1.106,4.36,4.36,0,0,1,1.927-.406,4.543,4.543,0,0,1,1.559.261,3.787,3.787,0,0,1,1.255.743,3.585,3.585,0,0,1,.855,1.173,4.078,4.078,0,0,1,.357,1.54h-1.11a3.076,3.076,0,0,0-.276-1.14,2.681,2.681,0,0,0-1.535-1.4,3.22,3.22,0,0,0-1.105-.188,3.076,3.076,0,0,0-1.521.348,2.927,2.927,0,0,0-1.019.936,4.081,4.081,0,0,0-.575,1.352,6.963,6.963,0,0,0-.178,1.593v.406a7.074,7.074,0,0,0,.178,1.608,4.079,4.079,0,0,0,.57,1.352,2.878,2.878,0,0,0,1.023.932A3.135,3.135,0,0,0,771.3,1073.066Z" transform="translate(-486.053 -1058.813)"/>
        <path id="Trazado_627" data-name="Trazado 627" d="M785.327,1057.76a.782.782,0,0,1,.212-.555.756.756,0,0,1,.58-.227.76.76,0,0,1,.8.782.757.757,0,0,1-.217.55.781.781,0,0,1-.584.222.745.745,0,0,1-.792-.772Zm1.362,13.471H785.53v-10.449h1.159Z" transform="translate(-493.821 -1056.196)"/>
        <path id="Trazado_628" data-name="Trazado 628" d="M791.989,1065.515a6.438,6.438,0,0,1,.333-2.105,5,5,0,0,1,.942-1.665,4.306,4.306,0,0,1,1.468-1.1,4.518,4.518,0,0,1,1.911-.4,4.6,4.6,0,0,1,1.936.4,4.3,4.3,0,0,1,1.473,1.1,4.925,4.925,0,0,1,.937,1.665,6.5,6.5,0,0,1,.328,2.105v.319a6.491,6.491,0,0,1-.328,2.1,4.917,4.917,0,0,1-.937,1.666,4.241,4.241,0,0,1-1.467,1.091,4.913,4.913,0,0,1-3.844,0,4.29,4.29,0,0,1-1.472-1.091,4.953,4.953,0,0,1-.947-1.666,6.431,6.431,0,0,1-.333-2.1Zm1.159.319a5.683,5.683,0,0,0,.232,1.636,4.205,4.205,0,0,0,.676,1.362,3.3,3.3,0,0,0,1.1.932,3.427,3.427,0,0,0,3.008,0,3.319,3.319,0,0,0,1.1-.932,4.205,4.205,0,0,0,.676-1.362,5.683,5.683,0,0,0,.233-1.636v-.319a5.614,5.614,0,0,0-.233-1.617,4.27,4.27,0,0,0-.676-1.367,3.318,3.318,0,0,0-1.105-.941,3.162,3.162,0,0,0-1.512-.353,3.085,3.085,0,0,0-1.492.353,3.348,3.348,0,0,0-1.1.941,4.27,4.27,0,0,0-.676,1.367,5.614,5.614,0,0,0-.232,1.617Zm4.731-9.656h1.4l-2.23,2.694h-1.014Z" transform="translate(-496.621 -1055.86)"/>
        <path id="Trazado_629" data-name="Trazado 629" d="M813.294,1063.4l.038,1.787a4.674,4.674,0,0,1,.623-.811,3.781,3.781,0,0,1,1.724-1.029,3.946,3.946,0,0,1,1.062-.14,4.294,4.294,0,0,1,1.4.213,2.525,2.525,0,0,1,1.048.676,3.068,3.068,0,0,1,.657,1.193,5.994,5.994,0,0,1,.226,1.762v6.8h-1.149v-6.808a4.471,4.471,0,0,0-.174-1.352,2.182,2.182,0,0,0-.493-.869,1.786,1.786,0,0,0-.777-.468,3.5,3.5,0,0,0-1.019-.14,2.9,2.9,0,0,0-1.12.208,3.057,3.057,0,0,0-.889.555,3.71,3.71,0,0,0-.666.8,4.548,4.548,0,0,0-.444.922v7.156h-1.149V1063.4Z" transform="translate(-505.111 -1058.813)"/>
        <path id="Trazado_630" data-name="Trazado 630" d="M841.669,1072.327l3.051-8.788h1.246l-4.422,12.119c-.091.238-.2.5-.343.8a3.593,3.593,0,0,1-.541.831,2.875,2.875,0,0,1-.83.652,2.541,2.541,0,0,1-1.212.266,1.793,1.793,0,0,1-.222-.015c-.084-.009-.168-.021-.252-.033s-.162-.028-.236-.043-.134-.031-.179-.044l-.01-.956q.115.019.313.039c.132.013.227.019.285.019a2.572,2.572,0,0,0,.821-.12,1.778,1.778,0,0,0,.623-.358,2.3,2.3,0,0,0,.468-.594,5.175,5.175,0,0,0,.367-.821l.5-1.38-3.939-10.362h1.265Z" transform="translate(-515.602 -1058.953)"/>
        <path id="Trazado_631" data-name="Trazado 631" d="M871.476,1067.774a2.642,2.642,0,0,0-.188-1.029,2.164,2.164,0,0,0-.638-.821,4.739,4.739,0,0,0-1.183-.681,15.984,15.984,0,0,0-1.834-.618,17.127,17.127,0,0,1-1.912-.651,5.991,5.991,0,0,1-1.444-.826,3.421,3.421,0,0,1-.917-1.091,3.084,3.084,0,0,1-.324-1.448,3.149,3.149,0,0,1,.348-1.478,3.42,3.42,0,0,1,.976-1.144,4.729,4.729,0,0,1,1.5-.743,6.473,6.473,0,0,1,1.9-.266,5.785,5.785,0,0,1,2,.328,4.6,4.6,0,0,1,1.521.9,3.945,3.945,0,0,1,.966,1.333,4.007,4.007,0,0,1,.338,1.642h-1.2a3.3,3.3,0,0,0-.241-1.27,2.819,2.819,0,0,0-.7-1.009,3.324,3.324,0,0,0-1.14-.666,4.58,4.58,0,0,0-1.545-.241,5.113,5.113,0,0,0-1.531.208,3.334,3.334,0,0,0-1.1.559,2.363,2.363,0,0,0-.667.826,2.3,2.3,0,0,0-.227,1,2.265,2.265,0,0,0,.188.928,2.159,2.159,0,0,0,.633.786,5.005,5.005,0,0,0,1.168.676,12.786,12.786,0,0,0,1.787.594,16.412,16.412,0,0,1,1.979.676,5.828,5.828,0,0,1,1.468.864,3.367,3.367,0,0,1,.907,1.144,3.43,3.43,0,0,1,.309,1.5,3.228,3.228,0,0,1-.362,1.54,3.417,3.417,0,0,1-1,1.155,4.72,4.72,0,0,1-1.531.724,7.074,7.074,0,0,1-1.931.251,7.561,7.561,0,0,1-1.26-.107,6.582,6.582,0,0,1-1.217-.323,5.247,5.247,0,0,1-1.091-.555,3.79,3.79,0,0,1-.879-.806,3.748,3.748,0,0,1-.588-1.072,3.95,3.95,0,0,1-.217-1.347h1.188a2.876,2.876,0,0,0,.366,1.5,3,3,0,0,0,.946.99,4.059,4.059,0,0,0,1.3.546,6.361,6.361,0,0,0,1.448.169,5.507,5.507,0,0,0,1.492-.188,3.568,3.568,0,0,0,1.149-.536,2.415,2.415,0,0,0,.734-.835A2.3,2.3,0,0,0,871.476,1067.774Z" transform="translate(-526.29 -1056.196)"/>
        <path id="Trazado_632" data-name="Trazado 632" d="M887.511,1074.041a4.59,4.59,0,0,1-1.883-.382,4.387,4.387,0,0,1-1.482-1.062,4.869,4.869,0,0,1-.971-1.617,5.866,5.866,0,0,1-.348-2.057v-.414a6.261,6.261,0,0,1,.362-2.187,5.142,5.142,0,0,1,.98-1.671,4.383,4.383,0,0,1,1.424-1.067,3.976,3.976,0,0,1,1.7-.377,4.167,4.167,0,0,1,1.767.357,3.645,3.645,0,0,1,1.3.995,4.36,4.36,0,0,1,.8,1.516,6.492,6.492,0,0,1,.271,1.922v.7h-7.455v.221a4.94,4.94,0,0,0,.261,1.618,4.083,4.083,0,0,0,.733,1.318,3.479,3.479,0,0,0,1.131.883,3.249,3.249,0,0,0,1.458.324,3.771,3.771,0,0,0,1.637-.338,3.645,3.645,0,0,0,1.289-1.082l.724.551a4.981,4.981,0,0,1-.6.714,3.628,3.628,0,0,1-.8.589,4.269,4.269,0,0,1-1.023.4A5.179,5.179,0,0,1,887.511,1074.041Zm-.213-9.85a2.952,2.952,0,0,0-1.217.251,3.053,3.053,0,0,0-.99.714,3.8,3.8,0,0,0-.7,1.116,5.35,5.35,0,0,0-.372,1.444h6.267v-.125a4.656,4.656,0,0,0-.213-1.27,3.382,3.382,0,0,0-.565-1.087,2.692,2.692,0,0,0-2.207-1.043Z" transform="translate(-534.793 -1058.813)"/>
        <path id="Trazado_633" data-name="Trazado 633" d="M906.377,1064.384a4.364,4.364,0,0,0-.782-.068,3.061,3.061,0,0,0-1.062.174,2.654,2.654,0,0,0-.836.487,2.842,2.842,0,0,0-.608.743,4.132,4.132,0,0,0-.392.951v7.175h-1.148V1063.4h1.129l.019,1.661a3.466,3.466,0,0,1,1.154-1.357,3.1,3.1,0,0,1,1.791-.5,2.572,2.572,0,0,1,.434.039,1.414,1.414,0,0,1,.329.087Z" transform="translate(-542.66 -1058.813)"/>
        <path id="Trazado_634" data-name="Trazado 634" d="M915.751,1072.4l3.177-8.856h1.188l-3.9,10.449h-.937l-3.92-10.449h1.188Z" transform="translate(-546.781 -1058.953)"/>
        <path id="Trazado_635" data-name="Trazado 635" d="M929.612,1057.76a.78.78,0,0,1,.213-.555.755.755,0,0,1,.58-.227.76.76,0,0,1,.8.782.757.757,0,0,1-.217.55.781.781,0,0,1-.584.222.746.746,0,0,1-.793-.772Zm1.362,13.471h-1.159v-10.449h1.159Z" transform="translate(-554.453 -1056.196)"/>
        <path id="Trazado_636" data-name="Trazado 636" d="M940.8,1073.066a3.507,3.507,0,0,0,1.057-.159,2.845,2.845,0,0,0,.9-.469,2.544,2.544,0,0,0,.652-.763,2.427,2.427,0,0,0,.294-1.052h1.11a3.242,3.242,0,0,1-.372,1.371,3.578,3.578,0,0,1-.878,1.082,4.148,4.148,0,0,1-1.26.709,4.718,4.718,0,0,1-3.437-.145,3.978,3.978,0,0,1-1.4-1.1,4.842,4.842,0,0,1-.85-1.657,7.132,7.132,0,0,1-.285-2.052v-.406a7.137,7.137,0,0,1,.285-2.052,4.828,4.828,0,0,1,.845-1.651,3.992,3.992,0,0,1,1.395-1.106,4.36,4.36,0,0,1,1.927-.406,4.542,4.542,0,0,1,1.559.261,3.791,3.791,0,0,1,1.255.743,3.59,3.59,0,0,1,.855,1.173,4.074,4.074,0,0,1,.357,1.54h-1.11a3.069,3.069,0,0,0-.275-1.14,2.68,2.68,0,0,0-1.535-1.4,3.219,3.219,0,0,0-1.105-.188,3.076,3.076,0,0,0-1.521.348,2.93,2.93,0,0,0-1.019.936,4.084,4.084,0,0,0-.575,1.352,6.973,6.973,0,0,0-.178,1.593v.406a7.084,7.084,0,0,0,.178,1.608,4.08,4.08,0,0,0,.57,1.352,2.876,2.876,0,0,0,1.023.932A3.135,3.135,0,0,0,940.8,1073.066Z" transform="translate(-557.28 -1058.813)"/>
        <path id="Trazado_637" data-name="Trazado 637" d="M954.828,1057.76a.783.783,0,0,1,.212-.555.755.755,0,0,1,.58-.227.76.76,0,0,1,.8.782.757.757,0,0,1-.217.55.781.781,0,0,1-.584.222.745.745,0,0,1-.792-.772Zm1.362,13.471h-1.159v-10.449h1.159Z" transform="translate(-565.049 -1056.196)"/>
        <path id="Trazado_638" data-name="Trazado 638" d="M961.49,1068.469a6.436,6.436,0,0,1,.333-2.105,5.014,5.014,0,0,1,.942-1.666,4.312,4.312,0,0,1,1.469-1.1,4.517,4.517,0,0,1,1.912-.4,4.6,4.6,0,0,1,1.936.4,4.291,4.291,0,0,1,1.473,1.1,4.927,4.927,0,0,1,.937,1.666,6.506,6.506,0,0,1,.328,2.105v.319a6.5,6.5,0,0,1-.328,2.105,4.912,4.912,0,0,1-.937,1.665,4.232,4.232,0,0,1-1.467,1.091,4.915,4.915,0,0,1-3.844,0,4.286,4.286,0,0,1-1.473-1.091,4.949,4.949,0,0,1-.947-1.665,6.428,6.428,0,0,1-.333-2.105Zm1.159.319a5.686,5.686,0,0,0,.232,1.637,4.206,4.206,0,0,0,.676,1.362,3.3,3.3,0,0,0,1.1.932,3.428,3.428,0,0,0,3.009,0,3.322,3.322,0,0,0,1.1-.932,4.207,4.207,0,0,0,.676-1.362,5.686,5.686,0,0,0,.232-1.637v-.319a5.619,5.619,0,0,0-.232-1.617,4.265,4.265,0,0,0-.676-1.366,3.32,3.32,0,0,0-1.105-.941,3.164,3.164,0,0,0-1.511-.353,3.088,3.088,0,0,0-1.492.353,3.348,3.348,0,0,0-1.1.941,4.264,4.264,0,0,0-.676,1.366,5.619,5.619,0,0,0-.232,1.617Z" transform="translate(-567.849 -1058.813)"/>
        <path id="Trazado_639" data-name="Trazado 639" d="M987.565,1071.192a1.921,1.921,0,0,0-.11-.637,1.528,1.528,0,0,0-.415-.6,3.127,3.127,0,0,0-.85-.531,7.04,7.04,0,0,0-1.415-.429,12.208,12.208,0,0,1-1.55-.425,4.434,4.434,0,0,1-1.149-.584,2.3,2.3,0,0,1-.709-.816,2.414,2.414,0,0,1-.241-1.11,2.467,2.467,0,0,1,.255-1.1,2.682,2.682,0,0,1,.735-.908,3.672,3.672,0,0,1,1.159-.613,4.825,4.825,0,0,1,1.53-.227,5.214,5.214,0,0,1,1.627.236,3.63,3.63,0,0,1,1.217.657,2.825,2.825,0,0,1,.758.99,2.941,2.941,0,0,1,.26,1.236h-1.158a1.862,1.862,0,0,0-.179-.791,2,2,0,0,0-.521-.682,2.709,2.709,0,0,0-.849-.477,3.377,3.377,0,0,0-1.154-.184,3.587,3.587,0,0,0-1.155.164,2.37,2.37,0,0,0-.781.425,1.608,1.608,0,0,0-.584,1.236,1.787,1.787,0,0,0,.107.632,1.264,1.264,0,0,0,.41.532,3.138,3.138,0,0,0,.849.453,11.3,11.3,0,0,0,1.425.411,11.986,11.986,0,0,1,1.632.492,4.139,4.139,0,0,1,1.135.642,2.38,2.38,0,0,1,.666.85,2.643,2.643,0,0,1,.217,1.106,2.6,2.6,0,0,1-.27,1.183,2.637,2.637,0,0,1-.772.917,3.774,3.774,0,0,1-1.217.594,5.587,5.587,0,0,1-1.593.213,5.525,5.525,0,0,1-1.757-.256,3.951,3.951,0,0,1-1.284-.69,2.9,2.9,0,0,1-.787-1,2.732,2.732,0,0,1-.266-1.173h1.159a2.008,2.008,0,0,0,.319,1.028,2.176,2.176,0,0,0,.7.656,3,3,0,0,0,.922.353,4.863,4.863,0,0,0,1,.107,3.934,3.934,0,0,0,1.159-.155,2.7,2.7,0,0,0,.845-.415,1.779,1.779,0,0,0,.517-.6A1.519,1.519,0,0,0,987.565,1071.192Z" transform="translate(-575.953 -1058.813)"/>
        <path id="Trazado_640" data-name="Trazado 640" d="M1017.257,1057.311v9.531a5.091,5.091,0,0,1-.391,2.072,4.168,4.168,0,0,1-1.062,1.472,4.447,4.447,0,0,1-1.574.884,6.171,6.171,0,0,1-1.927.294,6.265,6.265,0,0,1-1.956-.294,4.388,4.388,0,0,1-1.569-.884,4.023,4.023,0,0,1-1.043-1.472,5.251,5.251,0,0,1-.377-2.072v-9.531h1.179v9.531a4.325,4.325,0,0,0,.279,1.622,3.149,3.149,0,0,0,.783,1.159,3.322,3.322,0,0,0,1.192.7,4.954,4.954,0,0,0,3.022,0,3.279,3.279,0,0,0,1.188-.7,3.186,3.186,0,0,0,.777-1.159,4.321,4.321,0,0,0,.279-1.622v-9.531Z" transform="translate(-587.124 -1056.336)"/>
        <path id="Trazado_641" data-name="Trazado 641" d="M1030.779,1063.4l.039,1.787a4.627,4.627,0,0,1,.623-.811,3.775,3.775,0,0,1,1.723-1.029,3.951,3.951,0,0,1,1.062-.14,4.3,4.3,0,0,1,1.4.213,2.526,2.526,0,0,1,1.048.676,3.069,3.069,0,0,1,.657,1.193,5.974,5.974,0,0,1,.227,1.762v6.8h-1.149v-6.808a4.454,4.454,0,0,0-.174-1.352,2.19,2.19,0,0,0-.492-.869,1.788,1.788,0,0,0-.777-.468,3.5,3.5,0,0,0-1.019-.14,2.9,2.9,0,0,0-1.12.208,3.064,3.064,0,0,0-.889.555,3.711,3.711,0,0,0-.666.8,4.57,4.57,0,0,0-.445.922v7.156h-1.149V1063.4Z" transform="translate(-596.503 -1058.813)"/>
        <path id="Trazado_642" data-name="Trazado 642" d="M1048.3,1057.76a.783.783,0,0,1,.212-.555.755.755,0,0,1,.58-.227.76.76,0,0,1,.8.782.758.758,0,0,1-.217.55.782.782,0,0,1-.584.222.745.745,0,0,1-.792-.772Zm1.362,13.471H1048.5v-10.449h1.159Z" transform="translate(-604.327 -1056.196)"/>
        <path id="Trazado_643" data-name="Trazado 643" d="M1058.488,1072.4l3.177-8.856h1.188l-3.9,10.449h-.938l-3.92-10.449h1.188Z" transform="translate(-606.763 -1058.953)"/>
        <path id="Trazado_644" data-name="Trazado 644" d="M1075.832,1074.041a4.587,4.587,0,0,1-1.883-.382,4.388,4.388,0,0,1-1.483-1.062,4.864,4.864,0,0,1-.97-1.617,5.874,5.874,0,0,1-.348-2.057v-.414a6.266,6.266,0,0,1,.362-2.187,5.142,5.142,0,0,1,.98-1.671,4.384,4.384,0,0,1,1.424-1.067,3.978,3.978,0,0,1,1.7-.377,4.164,4.164,0,0,1,1.767.357,3.639,3.639,0,0,1,1.3.995,4.345,4.345,0,0,1,.8,1.516,6.482,6.482,0,0,1,.271,1.922v.7H1072.3v.221a4.927,4.927,0,0,0,.261,1.618,4.077,4.077,0,0,0,.734,1.318,3.473,3.473,0,0,0,1.13.883,3.252,3.252,0,0,0,1.458.324,3.77,3.77,0,0,0,1.637-.338,3.644,3.644,0,0,0,1.289-1.082l.724.551a4.943,4.943,0,0,1-.6.714,3.625,3.625,0,0,1-.8.589,4.262,4.262,0,0,1-1.023.4A5.175,5.175,0,0,1,1075.832,1074.041Zm-.214-9.85a2.947,2.947,0,0,0-1.216.251,3.034,3.034,0,0,0-.989.714,3.8,3.8,0,0,0-.705,1.116,5.372,5.372,0,0,0-.372,1.444h6.267v-.125a4.69,4.69,0,0,0-.212-1.27,3.383,3.383,0,0,0-.565-1.087,2.792,2.792,0,0,0-.922-.758A2.764,2.764,0,0,0,1075.619,1064.191Z" transform="translate(-613.929 -1058.813)"/>
        <path id="Trazado_645" data-name="Trazado 645" d="M1094.7,1064.384a4.363,4.363,0,0,0-.781-.068,3.058,3.058,0,0,0-1.062.174,2.658,2.658,0,0,0-.836.487,2.867,2.867,0,0,0-.608.743,4.122,4.122,0,0,0-.391.951v7.175h-1.149V1063.4H1091l.02,1.661a3.458,3.458,0,0,1,1.154-1.357,3.1,3.1,0,0,1,1.791-.5,2.561,2.561,0,0,1,.434.039,1.4,1.4,0,0,1,.328.087Z" transform="translate(-621.796 -1058.813)"/>
        <path id="Trazado_646" data-name="Trazado 646" d="M1107.217,1071.192a1.921,1.921,0,0,0-.111-.637,1.525,1.525,0,0,0-.415-.6,3.122,3.122,0,0,0-.849-.531,7.038,7.038,0,0,0-1.416-.429,12.25,12.25,0,0,1-1.55-.425,4.43,4.43,0,0,1-1.149-.584,2.3,2.3,0,0,1-.71-.816,2.415,2.415,0,0,1-.241-1.11,2.467,2.467,0,0,1,.256-1.1,2.69,2.69,0,0,1,.734-.908,3.675,3.675,0,0,1,1.159-.613,4.826,4.826,0,0,1,1.531-.227,5.217,5.217,0,0,1,1.627.236,3.625,3.625,0,0,1,1.216.657,2.822,2.822,0,0,1,.759.99,2.943,2.943,0,0,1,.26,1.236h-1.158a1.861,1.861,0,0,0-.179-.791,2,2,0,0,0-.522-.682,2.7,2.7,0,0,0-.849-.477,3.377,3.377,0,0,0-1.154-.184,3.584,3.584,0,0,0-1.154.164,2.373,2.373,0,0,0-.782.425,1.613,1.613,0,0,0-.584,1.236,1.788,1.788,0,0,0,.107.632,1.26,1.26,0,0,0,.41.532,3.148,3.148,0,0,0,.849.453,11.25,11.25,0,0,0,1.424.411,11.976,11.976,0,0,1,1.632.492,4.132,4.132,0,0,1,1.135.642,2.385,2.385,0,0,1,.667.85,2.65,2.65,0,0,1,.217,1.106,2.594,2.594,0,0,1-.271,1.183,2.637,2.637,0,0,1-.772.917,3.764,3.764,0,0,1-1.217.594,5.587,5.587,0,0,1-1.593.213,5.529,5.529,0,0,1-1.758-.256,3.955,3.955,0,0,1-1.284-.69,2.9,2.9,0,0,1-.787-1,2.724,2.724,0,0,1-.265-1.173h1.158a2,2,0,0,0,.319,1.028,2.171,2.171,0,0,0,.7.656,2.993,2.993,0,0,0,.923.353,4.864,4.864,0,0,0,1,.107,3.93,3.93,0,0,0,1.158-.155,2.69,2.69,0,0,0,.846-.415,1.772,1.772,0,0,0,.517-.6A1.52,1.52,0,0,0,1107.217,1071.192Z" transform="translate(-626.234 -1058.813)"/>
        <path id="Trazado_647" data-name="Trazado 647" d="M1118.5,1057.76a.784.784,0,0,1,.212-.555.755.755,0,0,1,.58-.227.76.76,0,0,1,.8.782.759.759,0,0,1-.217.55.781.781,0,0,1-.584.222.745.745,0,0,1-.792-.772Zm1.362,13.471h-1.16v-10.449h1.16Z" transform="translate(-633.827 -1056.196)"/>
        <path id="Trazado_648" data-name="Trazado 648" d="M1127.125,1058.927v2.674h2.163v.947h-2.163v6.963a2.864,2.864,0,0,0,.111.883,1.32,1.32,0,0,0,.3.521.924.924,0,0,0,.434.251,2.075,2.075,0,0,0,.517.063,3.606,3.606,0,0,0,.5-.034l.434-.062.048.946a2.613,2.613,0,0,1-.555.121,5.356,5.356,0,0,1-.681.044,3.07,3.07,0,0,1-.912-.13,1.635,1.635,0,0,1-.719-.448,2.186,2.186,0,0,1-.469-.846,4.337,4.337,0,0,1-.17-1.308v-6.963h-1.921v-.947h1.921v-2.674Z" transform="translate(-636.158 -1057.015)"/>
        <path id="Trazado_649" data-name="Trazado 649" d="M1143.424,1073.848a3.233,3.233,0,0,1-.15-.662c-.036-.261-.06-.526-.073-.8a4.138,4.138,0,0,1-1.419,1.158,4.811,4.811,0,0,1-.976.357,4.655,4.655,0,0,1-1.149.136,4.112,4.112,0,0,1-1.386-.222,3.107,3.107,0,0,1-1.062-.623,2.814,2.814,0,0,1-.681-.942,3.027,3.027,0,0,1,.087-2.555,2.972,2.972,0,0,1,.946-1.043,4.608,4.608,0,0,1,1.5-.656,7.981,7.981,0,0,1,1.985-.227h2.143v-1.187a2.289,2.289,0,0,0-.69-1.763,2.855,2.855,0,0,0-2.014-.642,3.641,3.641,0,0,0-1.119.164,2.811,2.811,0,0,0-.884.453,2.164,2.164,0,0,0-.58.671,1.686,1.686,0,0,0-.207.816l-1.159-.01a2.41,2.41,0,0,1,.29-1.14,3.153,3.153,0,0,1,.816-.98,4.19,4.19,0,0,1,1.265-.691,4.889,4.889,0,0,1,1.637-.261,5.252,5.252,0,0,1,1.53.213,3.333,3.333,0,0,1,1.2.637,2.9,2.9,0,0,1,.782,1.062,3.673,3.673,0,0,1,.28,1.487v5.06c0,.18.007.367.019.56s.034.38.063.56.063.352.1.516a2.794,2.794,0,0,0,.135.43v.117Zm-3.631-.831a4.083,4.083,0,0,0,1.164-.159,3.774,3.774,0,0,0,.97-.439,3.477,3.477,0,0,0,.753-.652,3.283,3.283,0,0,0,.512-.806v-2.3h-1.979a7.167,7.167,0,0,0-1.589.16,3.851,3.851,0,0,0-1.183.459,2.156,2.156,0,0,0-.738.729,1.864,1.864,0,0,0-.256.97,1.954,1.954,0,0,0,.164.8,1.9,1.9,0,0,0,.469.647,2.249,2.249,0,0,0,.739.435A2.829,2.829,0,0,0,1139.793,1073.017Z" transform="translate(-641.302 -1058.813)"/>
        <path id="Trazado_650" data-name="Trazado 650" d="M1160.319,1064.384a4.363,4.363,0,0,0-.781-.068,3.059,3.059,0,0,0-1.062.174,2.65,2.65,0,0,0-.836.487,2.863,2.863,0,0,0-.608.743,4.144,4.144,0,0,0-.391.951v7.175h-1.149V1063.4h1.129l.02,1.661a3.461,3.461,0,0,1,1.154-1.357,3.105,3.105,0,0,1,1.792-.5,2.564,2.564,0,0,1,.434.039,1.4,1.4,0,0,1,.328.087Z" transform="translate(-649.372 -1058.813)"/>
        <path id="Trazado_651" data-name="Trazado 651" d="M1166.85,1057.76a.783.783,0,0,1,.212-.555.755.755,0,0,1,.58-.227.76.76,0,0,1,.8.782.758.758,0,0,1-.217.55.781.781,0,0,1-.584.222.745.745,0,0,1-.792-.772Zm1.361,13.471h-1.159v-10.449h1.159Z" transform="translate(-654.145 -1056.196)"/>
        <path id="Trazado_652" data-name="Trazado 652" d="M1173.512,1068.469a6.423,6.423,0,0,1,.333-2.105,5.015,5.015,0,0,1,.942-1.666,4.306,4.306,0,0,1,1.468-1.1,4.515,4.515,0,0,1,1.911-.4,4.6,4.6,0,0,1,1.937.4,4.3,4.3,0,0,1,1.473,1.1,4.93,4.93,0,0,1,.936,1.666,6.5,6.5,0,0,1,.329,2.105v.319a6.491,6.491,0,0,1-.329,2.105,4.915,4.915,0,0,1-.936,1.665,4.242,4.242,0,0,1-1.468,1.091,4.915,4.915,0,0,1-3.844,0,4.284,4.284,0,0,1-1.472-1.091,4.945,4.945,0,0,1-.947-1.665,6.416,6.416,0,0,1-.333-2.105Zm1.159.319a5.7,5.7,0,0,0,.231,1.637,4.211,4.211,0,0,0,.676,1.362,3.308,3.308,0,0,0,1.1.932,3.426,3.426,0,0,0,3.008,0,3.327,3.327,0,0,0,1.1-.932,4.233,4.233,0,0,0,.676-1.362,5.718,5.718,0,0,0,.232-1.637v-.319a5.651,5.651,0,0,0-.232-1.617,4.292,4.292,0,0,0-.676-1.366,3.326,3.326,0,0,0-1.106-.941,3.162,3.162,0,0,0-1.511-.353,3.087,3.087,0,0,0-1.492.353,3.358,3.358,0,0,0-1.1.941,4.27,4.27,0,0,0-.676,1.366,5.633,5.633,0,0,0-.231,1.617Z" transform="translate(-656.944 -1058.813)"/>
        <path id="Trazado_653" data-name="Trazado 653" d="M1199.587,1071.192a1.924,1.924,0,0,0-.111-.637,1.524,1.524,0,0,0-.414-.6,3.137,3.137,0,0,0-.85-.531,7.042,7.042,0,0,0-1.415-.429,12.2,12.2,0,0,1-1.549-.425,4.427,4.427,0,0,1-1.15-.584,2.306,2.306,0,0,1-.71-.816,2.415,2.415,0,0,1-.241-1.11,2.47,2.47,0,0,1,.255-1.1,2.7,2.7,0,0,1,.734-.908,3.673,3.673,0,0,1,1.159-.613,4.828,4.828,0,0,1,1.53-.227,5.218,5.218,0,0,1,1.628.236,3.632,3.632,0,0,1,1.216.657,2.818,2.818,0,0,1,.758.99,2.932,2.932,0,0,1,.26,1.236h-1.159a1.864,1.864,0,0,0-.178-.791,2,2,0,0,0-.522-.682,2.7,2.7,0,0,0-.85-.477,3.376,3.376,0,0,0-1.154-.184,3.583,3.583,0,0,0-1.154.164,2.369,2.369,0,0,0-.782.425,1.61,1.61,0,0,0-.585,1.236,1.794,1.794,0,0,0,.106.632,1.267,1.267,0,0,0,.411.532,3.145,3.145,0,0,0,.849.453,11.234,11.234,0,0,0,1.424.411,11.989,11.989,0,0,1,1.632.492,4.127,4.127,0,0,1,1.135.642,2.377,2.377,0,0,1,.667.85,2.645,2.645,0,0,1,.217,1.106,2.585,2.585,0,0,1-.271,1.183,2.624,2.624,0,0,1-.772.917,3.761,3.761,0,0,1-1.217.594,5.59,5.59,0,0,1-1.593.213,5.527,5.527,0,0,1-1.757-.256,3.959,3.959,0,0,1-1.284-.69,2.906,2.906,0,0,1-.787-1,2.719,2.719,0,0,1-.266-1.173h1.158a2,2,0,0,0,.319,1.028,2.17,2.17,0,0,0,.695.656,3,3,0,0,0,.922.353,4.865,4.865,0,0,0,1,.107,3.933,3.933,0,0,0,1.158-.155,2.686,2.686,0,0,0,.845-.415,1.768,1.768,0,0,0,.516-.6A1.522,1.522,0,0,0,1199.587,1071.192Z" transform="translate(-665.049 -1058.813)"/>
      </g>
    </g>
    <g id="Grupo_1653" data-name="Grupo 1653" transform="translate(217.419 1060.076)"  style="stroke: White; stroke-width: 0;">
      <g id="Grupo_1652" data-name="Grupo 1652">
        <path id="Trazado_654" data-name="Trazado 654" d="M294.645,1110.408a3.138,3.138,0,0,0-.185-1.115,2.212,2.212,0,0,0-.674-.9,5.647,5.647,0,0,0-1.349-.789,21.2,21.2,0,0,0-2.21-.788,21.309,21.309,0,0,1-2.728-1.008,9.419,9.419,0,0,1-2.152-1.321,5.645,5.645,0,0,1-1.413-1.733,4.782,4.782,0,0,1-.511-2.244,5.025,5.025,0,0,1,.532-2.3,5.448,5.448,0,0,1,1.5-1.818,7.125,7.125,0,0,1,2.315-1.193,9.862,9.862,0,0,1,2.983-.427,9.171,9.171,0,0,1,3.139.5,7.057,7.057,0,0,1,2.352,1.371,5.976,5.976,0,0,1,1.47,2.01,5.9,5.9,0,0,1,.512,2.436h-3.58a3.963,3.963,0,0,0-.234-1.385,2.894,2.894,0,0,0-.717-1.094,3.3,3.3,0,0,0-1.222-.718,5.343,5.343,0,0,0-1.747-.256,5.637,5.637,0,0,0-1.647.214,3.314,3.314,0,0,0-1.158.6,2.365,2.365,0,0,0-.682.91,2.914,2.914,0,0,0-.22,1.136,2.281,2.281,0,0,0,1.087,1.918,11.587,11.587,0,0,0,3.317,1.42,19.242,19.242,0,0,1,3.025,1.136,8.7,8.7,0,0,1,2.124,1.413,5.114,5.114,0,0,1,1.257,1.775,5.727,5.727,0,0,1,.412,2.224,5.214,5.214,0,0,1-.518,2.351,5.027,5.027,0,0,1-1.477,1.776,6.933,6.933,0,0,1-2.323,1.122,11.026,11.026,0,0,1-3.04.391,10.913,10.913,0,0,1-2.941-.4,8.315,8.315,0,0,1-2.6-1.222,6.371,6.371,0,0,1-1.854-2.038,5.66,5.66,0,0,1-.7-2.871h3.594a3.764,3.764,0,0,0,.348,1.684,3.141,3.141,0,0,0,.952,1.15,3.98,3.98,0,0,0,1.428.653,7.305,7.305,0,0,0,1.775.206,4.431,4.431,0,0,0,2.819-.76A2.451,2.451,0,0,0,294.645,1110.408Z" transform="translate(-282.783 -1093.916)"/>
        <path id="Trazado_655" data-name="Trazado 655" d="M323.56,1118.287a4.905,4.905,0,0,1-1.79,1.321,6.242,6.242,0,0,1-2.528.469,6.317,6.317,0,0,1-2.067-.32,3.992,3.992,0,0,1-1.6-1.008,4.657,4.657,0,0,1-1.037-1.776,8.132,8.132,0,0,1-.37-2.607v-9.944h3.453v9.972a4.086,4.086,0,0,0,.2,1.385,2.351,2.351,0,0,0,.533.88,1.834,1.834,0,0,0,.774.469,3.134,3.134,0,0,0,.923.135,4.236,4.236,0,0,0,2.16-.483,3.078,3.078,0,0,0,1.235-1.321v-11.038H326.9v15.371h-3.253Z" transform="translate(-295.973 -1097.973)"/>
        <path id="Trazado_656" data-name="Trazado 656" d="M355.672,1107.589a11.9,11.9,0,0,1-.391,3.139,7.519,7.519,0,0,1-1.143,2.472,5.318,5.318,0,0,1-1.876,1.619,6.093,6.093,0,0,1-5.029.079,4.914,4.914,0,0,1-1.761-1.443l-.171,1.663h-3.125V1093.3h3.453v7.927a4.914,4.914,0,0,1,1.712-1.307,5.461,5.461,0,0,1,2.308-.455,5.658,5.658,0,0,1,2.614.575,5.308,5.308,0,0,1,1.882,1.612,7.318,7.318,0,0,1,1.143,2.479,12.28,12.28,0,0,1,.384,3.161Zm-3.451-.3a10.894,10.894,0,0,0-.164-1.918,4.845,4.845,0,0,0-.561-1.591,3.066,3.066,0,0,0-1.059-1.087,3.115,3.115,0,0,0-1.655-.4,3.384,3.384,0,0,0-1.975.533,3.454,3.454,0,0,0-1.179,1.427v6.336a3.577,3.577,0,0,0,1.186,1.449,3.345,3.345,0,0,0,2,.554,3.072,3.072,0,0,0,1.605-.391,3.037,3.037,0,0,0,1.058-1.065,4.742,4.742,0,0,0,.575-1.584,10.643,10.643,0,0,0,.171-1.961Z" transform="translate(-307.741 -1093.298)"/>
        <path id="Trazado_657" data-name="Trazado 657" d="M378.546,1115.41a1.945,1.945,0,0,0-.121-.689,1.4,1.4,0,0,0-.476-.6,3.826,3.826,0,0,0-1-.519,11.648,11.648,0,0,0-1.682-.454,14.96,14.96,0,0,1-2.252-.639,6.911,6.911,0,0,1-1.74-.93,4.038,4.038,0,0,1-1.129-1.286,3.489,3.489,0,0,1-.4-1.7,4.021,4.021,0,0,1,.412-1.782,4.438,4.438,0,0,1,1.186-1.485,5.922,5.922,0,0,1,1.876-1.016,7.574,7.574,0,0,1,2.465-.376,8.218,8.218,0,0,1,2.578.376,5.877,5.877,0,0,1,1.939,1.036,4.438,4.438,0,0,1,1.633,3.488h-3.452a2.264,2.264,0,0,0-.17-.86,2.144,2.144,0,0,0-.511-.746,2.472,2.472,0,0,0-.845-.518,3.285,3.285,0,0,0-1.172-.192,3.547,3.547,0,0,0-1.136.163,2.513,2.513,0,0,0-.8.426,1.683,1.683,0,0,0-.475.611,1.764,1.764,0,0,0-.157.732,1.581,1.581,0,0,0,.141.682,1.386,1.386,0,0,0,.505.54,4.177,4.177,0,0,0,.973.448,14.449,14.449,0,0,0,1.534.4,18.06,18.06,0,0,1,2.394.668,6.77,6.77,0,0,1,1.79.937,3.8,3.8,0,0,1,1.115,1.307,3.9,3.9,0,0,1,.384,1.79,4.027,4.027,0,0,1-.441,1.875,4.324,4.324,0,0,1-1.256,1.47,6.11,6.11,0,0,1-1.968.958,8.969,8.969,0,0,1-2.557.341,8.05,8.05,0,0,1-2.792-.448,6.382,6.382,0,0,1-2.038-1.171,4.89,4.89,0,0,1-1.244-1.641,4.456,4.456,0,0,1-.419-1.869h3.353a2.646,2.646,0,0,0,.326,1.194,2.4,2.4,0,0,0,.725.781,3.037,3.037,0,0,0,.994.433,4.772,4.772,0,0,0,1.137.135,3.492,3.492,0,0,0,2.074-.518A1.605,1.605,0,0,0,378.546,1115.41Z" transform="translate(-319.109 -1097.767)"/>
        <path id="Trazado_658" data-name="Trazado 658" d="M396.35,1096.2a1.831,1.831,0,0,1,.505-1.32,1.9,1.9,0,0,1,1.441-.525,1.929,1.929,0,0,1,1.449.525,1.817,1.817,0,0,1,.511,1.32,1.774,1.774,0,0,1-.511,1.3,1.945,1.945,0,0,1-1.449.519,1.916,1.916,0,0,1-1.441-.519A1.788,1.788,0,0,1,396.35,1096.2Zm3.665,19.363h-3.452v-15.371h3.452Z" transform="translate(-330.506 -1093.741)"/>
        <path id="Trazado_659" data-name="Trazado 659" d="M417.259,1115.41a1.943,1.943,0,0,0-.121-.689,1.4,1.4,0,0,0-.476-.6,3.825,3.825,0,0,0-1-.519,11.655,11.655,0,0,0-1.683-.454,14.955,14.955,0,0,1-2.252-.639,6.909,6.909,0,0,1-1.74-.93,4.038,4.038,0,0,1-1.129-1.286,3.489,3.489,0,0,1-.4-1.7,4.02,4.02,0,0,1,.412-1.782,4.436,4.436,0,0,1,1.186-1.485,5.924,5.924,0,0,1,1.876-1.016,7.573,7.573,0,0,1,2.464-.376,8.219,8.219,0,0,1,2.579.376,5.875,5.875,0,0,1,1.939,1.036,4.437,4.437,0,0,1,1.634,3.488h-3.452a2.265,2.265,0,0,0-.17-.86,2.144,2.144,0,0,0-.511-.746,2.477,2.477,0,0,0-.845-.518,3.287,3.287,0,0,0-1.172-.192,3.546,3.546,0,0,0-1.136.163,2.515,2.515,0,0,0-.8.426,1.691,1.691,0,0,0-.476.611,1.772,1.772,0,0,0-.156.732,1.579,1.579,0,0,0,.142.682,1.386,1.386,0,0,0,.5.54,4.181,4.181,0,0,0,.973.448,14.452,14.452,0,0,0,1.534.4,18.085,18.085,0,0,1,2.394.668,6.773,6.773,0,0,1,1.79.937,3.8,3.8,0,0,1,1.115,1.307,3.9,3.9,0,0,1,.384,1.79,4.027,4.027,0,0,1-.441,1.875,4.319,4.319,0,0,1-1.257,1.47,6.1,6.1,0,0,1-1.968.958,8.97,8.97,0,0,1-2.557.341,8.049,8.049,0,0,1-2.792-.448,6.381,6.381,0,0,1-2.038-1.171,4.89,4.89,0,0,1-1.244-1.641,4.457,4.457,0,0,1-.419-1.869h3.353a2.636,2.636,0,0,0,.326,1.194,2.4,2.4,0,0,0,.725.781,3.036,3.036,0,0,0,.994.433,4.773,4.773,0,0,0,1.137.135,3.492,3.492,0,0,0,2.074-.518A1.607,1.607,0,0,0,417.259,1115.41Z" transform="translate(-335.376 -1097.767)"/>
        <path id="Trazado_660" data-name="Trazado 660" d="M438.177,1097.978v3.736h2.713v2.557h-2.713v8.58a2.647,2.647,0,0,0,.114.853,1.107,1.107,0,0,0,.326.5,1.17,1.17,0,0,0,.5.242,3.033,3.033,0,0,0,.647.064,4.625,4.625,0,0,0,.689-.05c.223-.034.4-.064.519-.093v2.67q-.412.113-.958.22a7.02,7.02,0,0,1-1.315.107,5.3,5.3,0,0,1-1.583-.228,3.135,3.135,0,0,1-1.265-.738,3.44,3.44,0,0,1-.831-1.336,5.959,5.959,0,0,1-.3-2.017v-8.779H432.2v-2.557h2.529v-3.736Z" transform="translate(-345.57 -1095.264)"/>
        <path id="Trazado_661" data-name="Trazado 661" d="M458.079,1119.871a7.91,7.91,0,0,1-3.069-.569,6.75,6.75,0,0,1-2.315-1.563,6.826,6.826,0,0,1-1.463-2.358,8.3,8.3,0,0,1-.511-2.94v-.568a9.481,9.481,0,0,1,.539-3.289,7.5,7.5,0,0,1,1.477-2.5,6.506,6.506,0,0,1,2.21-1.591,6.694,6.694,0,0,1,2.735-.561,6.993,6.993,0,0,1,2.912.561,5.493,5.493,0,0,1,2.045,1.569,6.739,6.739,0,0,1,1.207,2.4,11.1,11.1,0,0,1,.4,3.054v1.477H454.2a5.512,5.512,0,0,0,.377,1.648,4.026,4.026,0,0,0,.831,1.3,3.8,3.8,0,0,0,1.242.86,4.038,4.038,0,0,0,1.628.313,4.6,4.6,0,0,0,2.223-.512,5.2,5.2,0,0,0,1.641-1.406l1.861,1.776a6.291,6.291,0,0,1-2.194,2,7.377,7.377,0,0,1-1.655.653A8,8,0,0,1,458.079,1119.871Zm-.412-13.169a2.907,2.907,0,0,0-2.294.995,5.158,5.158,0,0,0-1.115,2.77h6.578v-.255a6.276,6.276,0,0,0-.221-1.314,3.32,3.32,0,0,0-.547-1.122,2.637,2.637,0,0,0-.959-.782A3.23,3.23,0,0,0,457.667,1106.7Z" transform="translate(-353.354 -1097.767)"/>
        <path id="Trazado_662" data-name="Trazado 662" d="M481.906,1104.216l.1,1.6a5.3,5.3,0,0,1,1.867-1.392,6.194,6.194,0,0,1,2.565-.5,5.484,5.484,0,0,1,2.514.561,3.776,3.776,0,0,1,1.7,1.8,5.508,5.508,0,0,1,4.716-2.358,6.6,6.6,0,0,1,2.131.319,3.838,3.838,0,0,1,1.584,1.009,4.593,4.593,0,0,1,.994,1.768,8.522,8.522,0,0,1,.349,2.6v9.958h-3.452v-9.973a4.311,4.311,0,0,0-.191-1.4,2.072,2.072,0,0,0-.554-.873,2.012,2.012,0,0,0-.867-.454,4.657,4.657,0,0,0-1.143-.128,2.877,2.877,0,0,0-1.925.631,3.338,3.338,0,0,0-1.044,1.656q0,.071.007.149c0,.052.007.1.007.149v10.243h-3.452v-9.93a4.2,4.2,0,0,0-.192-1.364,2.188,2.188,0,0,0-.554-.895,2.119,2.119,0,0,0-.874-.491,4.147,4.147,0,0,0-1.151-.148,3.347,3.347,0,0,0-1.826.455,3.09,3.09,0,0,0-1.115,1.235v11.138h-3.452v-15.37Z" transform="translate(-365.091 -1097.767)"/>
        <path id="Trazado_663" data-name="Trazado 663" d="M531.156,1119.587a2.829,2.829,0,0,1-.234-.639q-.093-.37-.163-.8a6.169,6.169,0,0,1-.76.667,5.188,5.188,0,0,1-.924.547,5.517,5.517,0,0,1-1.094.369,5.6,5.6,0,0,1-1.257.136,6.185,6.185,0,0,1-2.116-.348,4.964,4.964,0,0,1-1.655-.966,4.481,4.481,0,0,1-1.08-1.456,4.25,4.25,0,0,1-.391-1.818,4.894,4.894,0,0,1,.469-2.188,4.229,4.229,0,0,1,1.364-1.591,6.541,6.541,0,0,1,2.195-.973,11.953,11.953,0,0,1,2.962-.334h2.173v-1.009a2.691,2.691,0,0,0-.667-1.91,2.647,2.647,0,0,0-2.031-.718,3.551,3.551,0,0,0-1.109.164,2.7,2.7,0,0,0-.845.441,1.95,1.95,0,0,0-.54.66,1.813,1.813,0,0,0-.191.824h-3.453a3.706,3.706,0,0,1,.448-1.754,4.826,4.826,0,0,1,1.271-1.506,6.51,6.51,0,0,1,2-1.058,8.784,8.784,0,0,1,5.007-.064,5.379,5.379,0,0,1,1.889.995,4.475,4.475,0,0,1,1.235,1.647,5.629,5.629,0,0,1,.441,2.309v6.819a7.852,7.852,0,0,0,.582,3.309v.242Zm-3.793-2.486a3.806,3.806,0,0,0,1.115-.157,3.986,3.986,0,0,0,.938-.412,3.441,3.441,0,0,0,.732-.59,3.243,3.243,0,0,0,.5-.674v-2.9h-1.861a5.083,5.083,0,0,0-2.884.669,2.161,2.161,0,0,0-.966,1.889,2.344,2.344,0,0,0,.156.867,1.86,1.86,0,0,0,.469.689,2.21,2.21,0,0,0,.759.455A3.047,3.047,0,0,0,527.363,1117.1Z" transform="translate(-383.089 -1097.767)"/>
        <path id="Trazado_664" data-name="Trazado 664" d="M560.856,1107.319a11.48,11.48,0,0,1,.42-3.2,7.5,7.5,0,0,1,1.207-2.485,5.37,5.37,0,0,1,4.439-2.174,5.415,5.415,0,0,1,2.252.44,4.979,4.979,0,0,1,1.7,1.265v-7.87h3.452v21.82H571.2l-.17-1.591a5.164,5.164,0,0,1-1.755,1.385,5.414,5.414,0,0,1-2.379.491,5.288,5.288,0,0,1-2.507-.59,5.663,5.663,0,0,1-1.9-1.626,7.729,7.729,0,0,1-1.207-2.465,10.817,10.817,0,0,1-.427-3.1Zm3.452.3a9.255,9.255,0,0,0,.191,1.925,4.963,4.963,0,0,0,.611,1.584,3.131,3.131,0,0,0,1.073,1.072,3.041,3.041,0,0,0,1.591.391,3.272,3.272,0,0,0,1.91-.519,3.712,3.712,0,0,0,1.187-1.37v-6.564a3.521,3.521,0,0,0-1.194-1.349,3.336,3.336,0,0,0-1.875-.5,3.049,3.049,0,0,0-1.6.4,3.187,3.187,0,0,0-1.08,1.08,5.117,5.117,0,0,0-.618,1.6,9.23,9.23,0,0,0-.2,1.953Z" transform="translate(-399.635 -1093.298)"/>
        <path id="Trazado_665" data-name="Trazado 665" d="M596.637,1119.871a7.9,7.9,0,0,1-3.068-.569,6.731,6.731,0,0,1-2.316-1.563,6.827,6.827,0,0,1-1.463-2.358,8.3,8.3,0,0,1-.512-2.94v-.568a9.482,9.482,0,0,1,.54-3.289,7.506,7.506,0,0,1,1.477-2.5,6.51,6.51,0,0,1,2.209-1.591,6.7,6.7,0,0,1,2.735-.561,6.994,6.994,0,0,1,2.912.561,5.493,5.493,0,0,1,2.046,1.569,6.759,6.759,0,0,1,1.208,2.4,11.1,11.1,0,0,1,.4,3.054v1.477H592.759a5.513,5.513,0,0,0,.376,1.648,4.034,4.034,0,0,0,.831,1.3,3.81,3.81,0,0,0,1.244.86,4.034,4.034,0,0,0,1.626.313,4.6,4.6,0,0,0,2.223-.512,5.206,5.206,0,0,0,1.641-1.406l1.861,1.776a6.29,6.29,0,0,1-.917,1.072,6.2,6.2,0,0,1-1.278.924,7.361,7.361,0,0,1-1.655.653A8.006,8.006,0,0,1,596.637,1119.871Zm-.412-13.169a2.907,2.907,0,0,0-2.294.995,5.152,5.152,0,0,0-1.115,2.77h6.578v-.255a6.338,6.338,0,0,0-.22-1.314,3.362,3.362,0,0,0-.547-1.122,2.637,2.637,0,0,0-.959-.782A3.233,3.233,0,0,0,596.225,1106.7Z" transform="translate(-411.579 -1097.767)"/>
        <path id="Trazado_666" data-name="Trazado 666" d="M640.535,1111.125h-8.013l-1.676,4.817H627.11l7.813-20.684h3.225l7.827,20.684h-3.75Zm-7-2.9h5.995l-3-8.58Z" transform="translate(-427.477 -1094.122)"/>
        <path id="Trazado_667" data-name="Trazado 667" d="M668.961,1117.115a3.524,3.524,0,0,0,1.172-.192,2.935,2.935,0,0,0,.952-.54,2.727,2.727,0,0,0,.654-.831,2.548,2.548,0,0,0,.277-1.051h3.253a4.925,4.925,0,0,1-.547,2.089,5.684,5.684,0,0,1-1.349,1.711,6.383,6.383,0,0,1-1.967,1.151,6.809,6.809,0,0,1-2.4.419,7.266,7.266,0,0,1-3.09-.611,6.178,6.178,0,0,1-2.187-1.662,6.946,6.946,0,0,1-1.3-2.457,10.236,10.236,0,0,1-.426-2.984v-.5a10.232,10.232,0,0,1,.426-2.984,7.028,7.028,0,0,1,1.3-2.465,6.163,6.163,0,0,1,2.18-1.669,7.939,7.939,0,0,1,5.619-.184,5.768,5.768,0,0,1,1.96,1.193,5.451,5.451,0,0,1,1.278,1.833,6.37,6.37,0,0,1,.5,2.344h-3.253a3.581,3.581,0,0,0-.249-1.165,3.013,3.013,0,0,0-.611-.966,2.865,2.865,0,0,0-.945-.653,3.1,3.1,0,0,0-1.25-.241,3.017,3.017,0,0,0-2.813,1.562,4.772,4.772,0,0,0-.547,1.59,11.006,11.006,0,0,0-.149,1.805v.5a11.029,11.029,0,0,0,.149,1.826,4.765,4.765,0,0,0,.547,1.584,3.176,3.176,0,0,0,1.073,1.122A3.214,3.214,0,0,0,668.961,1117.115Z" transform="translate(-442.138 -1097.767)"/>
        <path id="Trazado_668" data-name="Trazado 668" d="M698.21,1119.587a2.907,2.907,0,0,1-.235-.639q-.092-.37-.163-.8a6.169,6.169,0,0,1-.759.667,5.24,5.24,0,0,1-.924.547,5.517,5.517,0,0,1-1.094.369,5.608,5.608,0,0,1-1.258.136,6.187,6.187,0,0,1-2.116-.348,4.955,4.955,0,0,1-1.655-.966,4.475,4.475,0,0,1-1.08-1.456,4.252,4.252,0,0,1-.391-1.818,4.893,4.893,0,0,1,.469-2.188,4.234,4.234,0,0,1,1.364-1.591,6.539,6.539,0,0,1,2.194-.973,11.958,11.958,0,0,1,2.962-.334H697.7v-1.009a2.689,2.689,0,0,0-.668-1.91,2.644,2.644,0,0,0-2.031-.718,3.549,3.549,0,0,0-1.108.164,2.708,2.708,0,0,0-.845.441,1.944,1.944,0,0,0-.539.66,1.812,1.812,0,0,0-.192.824h-3.452a3.7,3.7,0,0,1,.448-1.754,4.816,4.816,0,0,1,1.271-1.506,6.515,6.515,0,0,1,2-1.058,8.784,8.784,0,0,1,5.007-.064,5.383,5.383,0,0,1,1.889.995,4.476,4.476,0,0,1,1.236,1.647,5.635,5.635,0,0,1,.441,2.309v6.819a7.851,7.851,0,0,0,.583,3.309v.242Zm-3.793-2.486a3.816,3.816,0,0,0,1.115-.157,4.03,4.03,0,0,0,.938-.412,3.437,3.437,0,0,0,.731-.59,3.226,3.226,0,0,0,.5-.674v-2.9h-1.861a5.082,5.082,0,0,0-2.884.669,2.161,2.161,0,0,0-.966,1.889,2.343,2.343,0,0,0,.156.867,1.858,1.858,0,0,0,.469.689,2.206,2.206,0,0,0,.76.455A3.042,3.042,0,0,0,694.417,1117.1Z" transform="translate(-453.289 -1097.767)"/>
        <path id="Trazado_669" data-name="Trazado 669" d="M715.415,1107.319a11.48,11.48,0,0,1,.419-3.2,7.494,7.494,0,0,1,1.208-2.485,5.372,5.372,0,0,1,4.439-2.174,5.412,5.412,0,0,1,2.251.44,4.971,4.971,0,0,1,1.7,1.265v-7.87h3.452v21.82h-3.125l-.17-1.591a5.165,5.165,0,0,1-1.755,1.385,5.417,5.417,0,0,1-2.38.491,5.285,5.285,0,0,1-2.507-.59,5.675,5.675,0,0,1-1.9-1.626,7.746,7.746,0,0,1-1.207-2.465,10.809,10.809,0,0,1-.426-3.1Zm3.452.3a9.209,9.209,0,0,0,.192,1.925,4.956,4.956,0,0,0,.611,1.584,3.131,3.131,0,0,0,1.072,1.072,3.041,3.041,0,0,0,1.591.391,3.278,3.278,0,0,0,1.911-.519,3.707,3.707,0,0,0,1.186-1.37v-6.564a3.521,3.521,0,0,0-1.193-1.349,3.338,3.338,0,0,0-1.876-.5,3.047,3.047,0,0,0-1.6.4,3.188,3.188,0,0,0-1.08,1.08,5.089,5.089,0,0,0-.618,1.6,9.194,9.194,0,0,0-.2,1.953Z" transform="translate(-464.584 -1093.298)"/>
        <path id="Trazado_670" data-name="Trazado 670" d="M751.2,1115.4a7.9,7.9,0,0,1-3.068-.569,6.751,6.751,0,0,1-2.316-1.562,6.832,6.832,0,0,1-1.463-2.358,8.306,8.306,0,0,1-.512-2.941v-.568a9.466,9.466,0,0,1,.54-3.288,7.505,7.505,0,0,1,1.477-2.5,6.516,6.516,0,0,1,2.21-1.591,6.7,6.7,0,0,1,2.735-.561,6.991,6.991,0,0,1,2.912.561,5.5,5.5,0,0,1,2.046,1.569,6.758,6.758,0,0,1,1.208,2.4,11.092,11.092,0,0,1,.4,3.054v1.477H747.318a5.53,5.53,0,0,0,.375,1.648,4.047,4.047,0,0,0,.831,1.3,3.81,3.81,0,0,0,1.243.86,4.036,4.036,0,0,0,1.626.313,4.6,4.6,0,0,0,2.224-.511,5.206,5.206,0,0,0,1.641-1.406l1.861,1.776a6.32,6.32,0,0,1-.917,1.073,6.224,6.224,0,0,1-1.279.924,7.372,7.372,0,0,1-1.655.654A8.011,8.011,0,0,1,751.2,1115.4Zm-.412-13.17a2.908,2.908,0,0,0-2.294,1,5.157,5.157,0,0,0-1.115,2.77h6.578v-.255a6.372,6.372,0,0,0-.22-1.315,3.368,3.368,0,0,0-.547-1.122,2.649,2.649,0,0,0-.959-.782A3.235,3.235,0,0,0,750.784,1102.233Zm.782-8.935H755.5l-3.935,4.3H748.8Z" transform="translate(-476.528 -1093.298)"/>
        <path id="Trazado_671" data-name="Trazado 671" d="M775.023,1104.216l.1,1.6a5.312,5.312,0,0,1,1.868-1.392,6.192,6.192,0,0,1,2.564-.5,5.487,5.487,0,0,1,2.515.561,3.774,3.774,0,0,1,1.705,1.8,5.506,5.506,0,0,1,4.716-2.358,6.606,6.606,0,0,1,2.131.319,3.842,3.842,0,0,1,1.584,1.009,4.6,4.6,0,0,1,.994,1.768,8.526,8.526,0,0,1,.348,2.6v9.958H790.1v-9.973a4.311,4.311,0,0,0-.191-1.4,2.072,2.072,0,0,0-.554-.873,2.009,2.009,0,0,0-.866-.454,4.662,4.662,0,0,0-1.144-.128,2.877,2.877,0,0,0-1.925.631,3.34,3.34,0,0,0-1.044,1.656c0,.047,0,.1.008.149s.007.1.007.149v10.243h-3.452v-9.93a4.2,4.2,0,0,0-.192-1.364,2.175,2.175,0,0,0-.554-.895,2.124,2.124,0,0,0-.874-.491,4.149,4.149,0,0,0-1.15-.148,3.346,3.346,0,0,0-1.826.455,3.085,3.085,0,0,0-1.115,1.235v11.138H771.77v-15.37Z" transform="translate(-488.266 -1097.767)"/>
        <path id="Trazado_672" data-name="Trazado 672" d="M815.456,1096.2a1.831,1.831,0,0,1,.5-1.32,1.9,1.9,0,0,1,1.442-.525,1.927,1.927,0,0,1,1.449.525,1.819,1.819,0,0,1,.511,1.32,1.776,1.776,0,0,1-.511,1.3,1.942,1.942,0,0,1-1.449.519,1.917,1.917,0,0,1-1.442-.519A1.788,1.788,0,0,1,815.456,1096.2Zm3.665,19.363H815.67v-15.371h3.451Z" transform="translate(-506.623 -1093.741)"/>
        <path id="Trazado_673" data-name="Trazado 673" d="M834.1,1117.115a3.53,3.53,0,0,0,1.172-.192,2.935,2.935,0,0,0,.952-.54,2.736,2.736,0,0,0,.653-.831,2.537,2.537,0,0,0,.278-1.051h3.253a4.926,4.926,0,0,1-.547,2.089,5.693,5.693,0,0,1-1.349,1.711,6.394,6.394,0,0,1-1.968,1.151,6.808,6.808,0,0,1-2.4.419,7.264,7.264,0,0,1-3.09-.611,6.185,6.185,0,0,1-2.187-1.662,6.94,6.94,0,0,1-1.3-2.457,10.236,10.236,0,0,1-.426-2.984v-.5a10.232,10.232,0,0,1,.426-2.984,7.022,7.022,0,0,1,1.3-2.465,6.17,6.17,0,0,1,2.181-1.669,7.937,7.937,0,0,1,5.618-.184,5.753,5.753,0,0,1,1.96,1.193,5.433,5.433,0,0,1,1.279,1.833,6.372,6.372,0,0,1,.5,2.344h-3.253a3.578,3.578,0,0,0-.249-1.165,3,3,0,0,0-.61-.966,2.875,2.875,0,0,0-.945-.653,3.108,3.108,0,0,0-1.251-.241,3.015,3.015,0,0,0-2.812,1.562,4.774,4.774,0,0,0-.547,1.59,11.079,11.079,0,0,0-.148,1.805v.5a11.1,11.1,0,0,0,.148,1.826,4.767,4.767,0,0,0,.547,1.584,3.175,3.175,0,0,0,1.073,1.122A3.217,3.217,0,0,0,834.1,1117.115Z" transform="translate(-511.535 -1097.767)"/>
        <path id="Trazado_674" data-name="Trazado 674" d="M853.409,1111.759a9.5,9.5,0,0,1,.49-3.1,7.358,7.358,0,0,1,1.407-2.478,6.425,6.425,0,0,1,2.237-1.648,7.2,7.2,0,0,1,3-.6,7.332,7.332,0,0,1,3.026.6,6.4,6.4,0,0,1,2.252,1.648,7.287,7.287,0,0,1,1.4,2.478,9.655,9.655,0,0,1,.483,3.1v.3a9.718,9.718,0,0,1-.483,3.112,7.2,7.2,0,0,1-1.4,2.479,6.391,6.391,0,0,1-2.245,1.634,7.985,7.985,0,0,1-6.023,0,6.377,6.377,0,0,1-2.244-1.634,7.264,7.264,0,0,1-1.407-2.479,9.561,9.561,0,0,1-.49-3.112Zm3.452.3a8.688,8.688,0,0,0,.213,1.961,4.888,4.888,0,0,0,.668,1.612,3.5,3.5,0,0,0,4.481,1.087,3.283,3.283,0,0,0,1.152-1.087,5.122,5.122,0,0,0,.667-1.612,8.435,8.435,0,0,0,.22-1.961v-.3a8.278,8.278,0,0,0-.22-1.939,5.045,5.045,0,0,0-.675-1.606,3.478,3.478,0,0,0-1.158-1.1,3.241,3.241,0,0,0-1.669-.412,3.166,3.166,0,0,0-1.655.412,3.527,3.527,0,0,0-1.143,1.1,4.9,4.9,0,0,0-.668,1.606,8.526,8.526,0,0,0-.213,1.939Z" transform="translate(-522.572 -1097.767)"/>
        <path id="Trazado_675" data-name="Trazado 675" d="M891.2,1115.41a1.945,1.945,0,0,0-.121-.689,1.408,1.408,0,0,0-.476-.6,3.825,3.825,0,0,0-1-.519,11.664,11.664,0,0,0-1.683-.454,14.963,14.963,0,0,1-2.252-.639,6.911,6.911,0,0,1-1.74-.93,4.041,4.041,0,0,1-1.129-1.286,3.484,3.484,0,0,1-.4-1.7,4.006,4.006,0,0,1,.412-1.782,4.42,4.42,0,0,1,1.186-1.485,5.9,5.9,0,0,1,1.874-1.016,7.584,7.584,0,0,1,2.465-.376,8.208,8.208,0,0,1,2.578.376,5.864,5.864,0,0,1,1.939,1.036,4.437,4.437,0,0,1,1.634,3.488h-3.452a2.264,2.264,0,0,0-.17-.86,2.143,2.143,0,0,0-.512-.746,2.462,2.462,0,0,0-.845-.518,3.285,3.285,0,0,0-1.172-.192,3.552,3.552,0,0,0-1.137.163,2.516,2.516,0,0,0-.8.426,1.683,1.683,0,0,0-.476.611,1.763,1.763,0,0,0-.156.732,1.568,1.568,0,0,0,.142.682,1.386,1.386,0,0,0,.5.54,4.176,4.176,0,0,0,.973.448,14.449,14.449,0,0,0,1.534.4,18.089,18.089,0,0,1,2.394.668,6.769,6.769,0,0,1,1.79.937,3.8,3.8,0,0,1,1.115,1.307,3.9,3.9,0,0,1,.384,1.79,4.028,4.028,0,0,1-.44,1.875,4.335,4.335,0,0,1-1.257,1.47,6.109,6.109,0,0,1-1.968.958,8.972,8.972,0,0,1-2.557.341,8.043,8.043,0,0,1-2.791-.448,6.381,6.381,0,0,1-2.039-1.171,4.878,4.878,0,0,1-1.242-1.641,4.438,4.438,0,0,1-.419-1.869h3.352a2.628,2.628,0,0,0,.327,1.194,2.382,2.382,0,0,0,.725.781,3.033,3.033,0,0,0,.994.433,4.765,4.765,0,0,0,1.136.135,3.492,3.492,0,0,0,2.074-.518A1.606,1.606,0,0,0,891.2,1115.41Z" transform="translate(-534.536 -1097.767)"/>
      </g>
    </g>
    <g id="Grupo_1654" data-name="Grupo 1654" transform="translate(127.237 1014.239)">
      <path id="Trazado_676" data-name="Trazado 676" d="M190.785,1014.239H127.237v63.549a16.615,16.615,0,0,0,16.614,16.614H207.4v-63.548A16.614,16.614,0,0,0,190.785,1014.239Z" transform="translate(-127.237 -1014.239)" fill="#ffffff"/>
      <path id="Trazado_677" data-name="Trazado 677" d="M200.667,1082.3a15.927,15.927,0,0,1-4.7,5.694,21.827,21.827,0,0,1-7.276,3.526,34.028,34.028,0,0,1-9.4,1.22,45.929,45.929,0,0,1-8.994-1.039,52.051,52.051,0,0,1-11.345-3.932l3.436-8.407a38.9,38.9,0,0,0,9.174,3.209,39.69,39.69,0,0,0,7.728.859,14.07,14.07,0,0,0,4.475-.678,11.518,11.518,0,0,0,3.526-1.854,8.5,8.5,0,0,0,2.3-2.712,7.022,7.022,0,0,0,.814-3.344,7.809,7.809,0,0,0-2.261-5.6,26.747,26.747,0,0,0-5.695-4.384q-3.437-2.035-7.367-4.022a49.386,49.386,0,0,1-7.367-4.565,23.585,23.585,0,0,1-5.695-6.058,15.005,15.005,0,0,1-2.261-8.36,17.407,17.407,0,0,1,1.582-7.684,14.715,14.715,0,0,1,4.294-5.334,18.846,18.846,0,0,1,6.328-3.118,27.7,27.7,0,0,1,7.683-1.039q2.078,0,4.023.135t4.068.453a44.743,44.743,0,0,1,4.43.9q2.306.59,5.2,1.492l-3.345,8.225a58.964,58.964,0,0,0-7.322-1.672,41.542,41.542,0,0,0-6.237-.5,10,10,0,0,0-6.509,1.989,6.254,6.254,0,0,0-2.44,5.062,7.225,7.225,0,0,0,2.305,5.334,29.1,29.1,0,0,0,5.695,4.248q3.39,1.99,7.413,4.068a44.817,44.817,0,0,1,7.412,4.791,25.252,25.252,0,0,1,5.7,6.418,16.63,16.63,0,0,1,2.3,8.949A17.261,17.261,0,0,1,200.667,1082.3Z" transform="translate(-140.563 -1018.623)" fill="#1565c0"/>
      <path id="Trazado_678" data-name="Trazado 678" d="M254.4,1132.5a10.137,10.137,0,0,0-10.026,11.628H256.4V1132.7A10.158,10.158,0,0,0,254.4,1132.5Z" transform="translate(-176.415 -1063.935)" fill="#ab47bc"/>
    </g>
  </g>
</svg>
